<mxfile host="app.diagrams.net" modified="2021-04-12T20:17:49.579Z" agent="5.0 (X11; Linux x86_64) AppleWebKit/537.36 (KHTML, like Gecko) Chrome/89.0.4389.114 Safari/537.36" etag="4dALo-DE8JnUPwDCiteY" version="14.5.10" type="github">
  <diagram id="TPc17uy_a_bLmTfn4hXm" name="Page-1">
    <mxGraphModel dx="3933" dy="1865" grid="1" gridSize="10" guides="1" tooltips="1" connect="1" arrows="1" fold="1" page="1" pageScale="1" pageWidth="1920" pageHeight="1200" math="0" shadow="0">
      <root>
        <mxCell id="uhxujcsQMTb9jiqaK-6d-0" />
        <mxCell id="uhxujcsQMTb9jiqaK-6d-1" parent="uhxujcsQMTb9jiqaK-6d-0" />
        <mxCell id="qcHzUpOC3n5mlYQ7XM8k-64" value="" style="rounded=0;whiteSpace=wrap;html=1;labelBackgroundColor=none;fontSize=28;fontColor=#000000;" vertex="1" parent="uhxujcsQMTb9jiqaK-6d-1">
          <mxGeometry y="2680" width="1920" height="1190" as="geometry" />
        </mxCell>
        <mxCell id="qcHzUpOC3n5mlYQ7XM8k-77" value="" style="rounded=0;whiteSpace=wrap;html=1;labelBackgroundColor=none;fontSize=32;fontColor=#000000;align=left;" vertex="1" parent="uhxujcsQMTb9jiqaK-6d-1">
          <mxGeometry x="660" y="2950" width="600" height="620" as="geometry" />
        </mxCell>
        <mxCell id="qcHzUpOC3n5mlYQ7XM8k-124" style="edgeStyle=orthogonalEdgeStyle;rounded=0;orthogonalLoop=1;jettySize=auto;html=1;fontSize=32;fontColor=#000000;" edge="1" parent="uhxujcsQMTb9jiqaK-6d-1" source="4sQxQ9YIxLQr8alm6cPx-22" target="qcHzUpOC3n5mlYQ7XM8k-103">
          <mxGeometry relative="1" as="geometry">
            <Array as="points">
              <mxPoint x="1985" y="210" />
              <mxPoint x="1985" y="85" />
            </Array>
          </mxGeometry>
        </mxCell>
        <mxCell id="qcHzUpOC3n5mlYQ7XM8k-282" style="edgeStyle=orthogonalEdgeStyle;rounded=0;orthogonalLoop=1;jettySize=auto;html=1;fontSize=26;fontColor=#000000;startArrow=none;" edge="1" parent="uhxujcsQMTb9jiqaK-6d-1" source="qcHzUpOC3n5mlYQ7XM8k-284">
          <mxGeometry relative="1" as="geometry">
            <mxPoint x="2930" y="1290" as="targetPoint" />
            <mxPoint x="1910" y="265" as="sourcePoint" />
            <Array as="points">
              <mxPoint x="1910" y="290" />
              <mxPoint x="1980" y="290" />
              <mxPoint x="1980" y="1290" />
            </Array>
          </mxGeometry>
        </mxCell>
        <mxCell id="4sQxQ9YIxLQr8alm6cPx-22" value="" style="rounded=0;whiteSpace=wrap;html=1;labelBackgroundColor=none;fontSize=28;fontColor=#000000;" vertex="1" parent="uhxujcsQMTb9jiqaK-6d-1">
          <mxGeometry width="1920" height="1200" as="geometry" />
        </mxCell>
        <mxCell id="4sQxQ9YIxLQr8alm6cPx-6" value="LABE X&lt;br&gt;Space Travel" style="rounded=0;whiteSpace=wrap;html=1;fontStyle=1;labelBackgroundColor=none;fontSize=50;" vertex="1" parent="uhxujcsQMTb9jiqaK-6d-1">
          <mxGeometry width="1920" height="170" as="geometry" />
        </mxCell>
        <mxCell id="4sQxQ9YIxLQr8alm6cPx-7" value="Área de Admin" style="verticalLabelPosition=bottom;shadow=0;dashed=0;align=center;html=1;verticalAlign=top;strokeWidth=1;shape=mxgraph.mockup.containers.userMale;strokeColor=#666666;strokeColor2=#008cff;labelBackgroundColor=none;fontSize=18;fontColor=#000000;fontStyle=1" vertex="1" parent="uhxujcsQMTb9jiqaK-6d-1">
          <mxGeometry x="1770" y="180" width="130" height="110" as="geometry" />
        </mxCell>
        <mxCell id="4sQxQ9YIxLQr8alm6cPx-9" value="VER VIAGENS" style="shape=ext;double=1;rounded=0;whiteSpace=wrap;html=1;labelBackgroundColor=none;fontSize=42;fontColor=#000000;" vertex="1" parent="uhxujcsQMTb9jiqaK-6d-1">
          <mxGeometry x="690" y="520" width="560" height="190" as="geometry" />
        </mxCell>
        <mxCell id="4sQxQ9YIxLQr8alm6cPx-11" value="LabeX" style="shape=ext;double=1;rounded=0;whiteSpace=wrap;html=1;labelBackgroundColor=none;fontSize=42;fontColor=#000000;" vertex="1" parent="uhxujcsQMTb9jiqaK-6d-1">
          <mxGeometry y="1050" width="1920" height="150" as="geometry" />
        </mxCell>
        <mxCell id="4sQxQ9YIxLQr8alm6cPx-12" value="" style="shape=image;html=1;verticalAlign=top;verticalLabelPosition=bottom;labelBackgroundColor=#ffffff;imageAspect=0;aspect=fixed;image=https://cdn4.iconfinder.com/data/icons/social-media-and-logos-12/32/Logo_Whatsapp_telephone_handset-128.png;fontSize=42;fontColor=#000000;" vertex="1" parent="uhxujcsQMTb9jiqaK-6d-1">
          <mxGeometry x="50" y="1095" width="70" height="70" as="geometry" />
        </mxCell>
        <mxCell id="4sQxQ9YIxLQr8alm6cPx-13" value="" style="shape=image;html=1;verticalAlign=top;verticalLabelPosition=bottom;labelBackgroundColor=#ffffff;imageAspect=0;aspect=fixed;image=https://cdn3.iconfinder.com/data/icons/peelicons-vol-1/50/Facebook-128.png;fontSize=42;fontColor=#000000;" vertex="1" parent="uhxujcsQMTb9jiqaK-6d-1">
          <mxGeometry x="150" y="1090" width="80" height="80" as="geometry" />
        </mxCell>
        <mxCell id="4sQxQ9YIxLQr8alm6cPx-14" value="" style="shape=image;html=1;verticalAlign=top;verticalLabelPosition=bottom;labelBackgroundColor=#ffffff;imageAspect=0;aspect=fixed;image=https://cdn4.iconfinder.com/data/icons/social-media-and-logos-12/32/Logo_Instagram-128.png;fontSize=42;fontColor=#000000;" vertex="1" parent="uhxujcsQMTb9jiqaK-6d-1">
          <mxGeometry x="260" y="1086" width="88" height="88" as="geometry" />
        </mxCell>
        <mxCell id="4sQxQ9YIxLQr8alm6cPx-15" value="" style="shape=image;html=1;verticalAlign=top;verticalLabelPosition=bottom;labelBackgroundColor=#ffffff;imageAspect=0;aspect=fixed;image=https://cdn2.iconfinder.com/data/icons/social-media-2198/64/twitter_social_media_network-128.png;fontSize=42;fontColor=#000000;" vertex="1" parent="uhxujcsQMTb9jiqaK-6d-1">
          <mxGeometry x="360" y="1076" width="108" height="108" as="geometry" />
        </mxCell>
        <mxCell id="4sQxQ9YIxLQr8alm6cPx-17" value="Av. do Futuro, 2050&lt;br style=&quot;font-size: 28px;&quot;&gt;" style="text;html=1;strokeColor=none;fillColor=none;align=center;verticalAlign=middle;whiteSpace=wrap;rounded=0;labelBackgroundColor=none;fontSize=28;fontColor=#000000;" vertex="1" parent="uhxujcsQMTb9jiqaK-6d-1">
          <mxGeometry x="1380" y="1120" width="510" height="20" as="geometry" />
        </mxCell>
        <mxCell id="qcHzUpOC3n5mlYQ7XM8k-15" value="" style="rounded=0;whiteSpace=wrap;html=1;labelBackgroundColor=none;fontSize=28;fontColor=#000000;" vertex="1" parent="uhxujcsQMTb9jiqaK-6d-1">
          <mxGeometry y="1330" width="1920" height="1190" as="geometry" />
        </mxCell>
        <mxCell id="qcHzUpOC3n5mlYQ7XM8k-16" value="LABE X&lt;br&gt;Space Travel" style="rounded=0;whiteSpace=wrap;html=1;fontStyle=1;labelBackgroundColor=none;fontSize=50;" vertex="1" parent="uhxujcsQMTb9jiqaK-6d-1">
          <mxGeometry y="1330" width="1920" height="170" as="geometry" />
        </mxCell>
        <mxCell id="qcHzUpOC3n5mlYQ7XM8k-26" value="LabeX" style="shape=ext;double=1;rounded=0;whiteSpace=wrap;html=1;labelBackgroundColor=none;fontSize=42;fontColor=#000000;" vertex="1" parent="uhxujcsQMTb9jiqaK-6d-1">
          <mxGeometry y="2370" width="1920" height="150" as="geometry" />
        </mxCell>
        <mxCell id="qcHzUpOC3n5mlYQ7XM8k-27" value="" style="shape=image;html=1;verticalAlign=top;verticalLabelPosition=bottom;labelBackgroundColor=#ffffff;imageAspect=0;aspect=fixed;image=https://cdn4.iconfinder.com/data/icons/social-media-and-logos-12/32/Logo_Whatsapp_telephone_handset-128.png;fontSize=42;fontColor=#000000;" vertex="1" parent="uhxujcsQMTb9jiqaK-6d-1">
          <mxGeometry x="50" y="2415" width="70" height="70" as="geometry" />
        </mxCell>
        <mxCell id="qcHzUpOC3n5mlYQ7XM8k-28" value="" style="shape=image;html=1;verticalAlign=top;verticalLabelPosition=bottom;labelBackgroundColor=#ffffff;imageAspect=0;aspect=fixed;image=https://cdn3.iconfinder.com/data/icons/peelicons-vol-1/50/Facebook-128.png;fontSize=42;fontColor=#000000;" vertex="1" parent="uhxujcsQMTb9jiqaK-6d-1">
          <mxGeometry x="150" y="2410" width="80" height="80" as="geometry" />
        </mxCell>
        <mxCell id="qcHzUpOC3n5mlYQ7XM8k-29" value="" style="shape=image;html=1;verticalAlign=top;verticalLabelPosition=bottom;labelBackgroundColor=#ffffff;imageAspect=0;aspect=fixed;image=https://cdn4.iconfinder.com/data/icons/social-media-and-logos-12/32/Logo_Instagram-128.png;fontSize=42;fontColor=#000000;" vertex="1" parent="uhxujcsQMTb9jiqaK-6d-1">
          <mxGeometry x="260" y="2406" width="88" height="88" as="geometry" />
        </mxCell>
        <mxCell id="qcHzUpOC3n5mlYQ7XM8k-30" value="" style="shape=image;html=1;verticalAlign=top;verticalLabelPosition=bottom;labelBackgroundColor=#ffffff;imageAspect=0;aspect=fixed;image=https://cdn2.iconfinder.com/data/icons/social-media-2198/64/twitter_social_media_network-128.png;fontSize=42;fontColor=#000000;" vertex="1" parent="uhxujcsQMTb9jiqaK-6d-1">
          <mxGeometry x="360" y="2396" width="108" height="108" as="geometry" />
        </mxCell>
        <mxCell id="qcHzUpOC3n5mlYQ7XM8k-31" value="Av. do Futuro, 2050&lt;br style=&quot;font-size: 28px;&quot;&gt;" style="text;html=1;strokeColor=none;fillColor=none;align=center;verticalAlign=middle;whiteSpace=wrap;rounded=0;labelBackgroundColor=none;fontSize=28;fontColor=#000000;" vertex="1" parent="uhxujcsQMTb9jiqaK-6d-1">
          <mxGeometry x="1380" y="2440" width="510" height="20" as="geometry" />
        </mxCell>
        <mxCell id="qcHzUpOC3n5mlYQ7XM8k-101" style="edgeStyle=orthogonalEdgeStyle;rounded=0;orthogonalLoop=1;jettySize=auto;html=1;exitX=1;exitY=0.5;exitDx=0;exitDy=0;fontSize=32;fontColor=#000000;" edge="1" parent="uhxujcsQMTb9jiqaK-6d-1" source="qcHzUpOC3n5mlYQ7XM8k-33" target="qcHzUpOC3n5mlYQ7XM8k-71">
          <mxGeometry relative="1" as="geometry">
            <Array as="points">
              <mxPoint x="1950" y="1416" />
              <mxPoint x="1950" y="2580" />
              <mxPoint x="960" y="2580" />
            </Array>
          </mxGeometry>
        </mxCell>
        <mxCell id="qcHzUpOC3n5mlYQ7XM8k-33" value="INSCREVA-SE EM UMA VIAGEM" style="rounded=0;whiteSpace=wrap;html=1;labelBackgroundColor=none;fontSize=28;fontColor=#000000;" vertex="1" parent="uhxujcsQMTb9jiqaK-6d-1">
          <mxGeometry x="1510" y="1372.5" width="290" height="87.5" as="geometry" />
        </mxCell>
        <mxCell id="qcHzUpOC3n5mlYQ7XM8k-35" value="" style="shape=image;html=1;verticalAlign=top;verticalLabelPosition=bottom;labelBackgroundColor=#ffffff;imageAspect=0;aspect=fixed;image=https://cdn2.iconfinder.com/data/icons/navigation-set-arrows-part-two/32/Arrow_Left-128.png;fontSize=28;fontColor=#000000;" vertex="1" parent="uhxujcsQMTb9jiqaK-6d-1">
          <mxGeometry x="40" y="1352" width="128" height="128" as="geometry" />
        </mxCell>
        <mxCell id="qcHzUpOC3n5mlYQ7XM8k-37" value="LISTA DE VIAGENS" style="text;strokeColor=none;fillColor=none;html=1;fontSize=30;fontStyle=1;verticalAlign=middle;align=center;labelBackgroundColor=none;fontColor=#000000;" vertex="1" parent="uhxujcsQMTb9jiqaK-6d-1">
          <mxGeometry x="785" y="1520" width="350" height="40" as="geometry" />
        </mxCell>
        <mxCell id="qcHzUpOC3n5mlYQ7XM8k-38" value="&lt;p style=&quot;color: rgb(57, 65, 69); font-size: 20px; font-style: normal; font-weight: 400; letter-spacing: normal; text-indent: 0px; text-transform: none; word-spacing: 0px;&quot;&gt;&lt;b style=&quot;color: slategray; font-size: 20px;&quot;&gt;Nome:&lt;/b&gt;&lt;span style=&quot;font-size: 20px;&quot;&gt;&amp;nbsp;&lt;/span&gt;Plutão é planeta sim!&lt;/p&gt;&lt;p style=&quot;color: rgb(57, 65, 69); font-size: 20px; font-style: normal; font-weight: 400; letter-spacing: normal; text-indent: 0px; text-transform: none; word-spacing: 0px;&quot;&gt;&lt;b style=&quot;color: slategray; font-size: 20px;&quot;&gt;Descrição:&lt;/b&gt;&lt;span style=&quot;font-size: 20px;&quot;&gt;&amp;nbsp;&lt;/span&gt;Desvende os mistérios de plutão&lt;/p&gt;&lt;p style=&quot;color: rgb(57, 65, 69); font-size: 20px; font-style: normal; font-weight: 400; letter-spacing: normal; text-indent: 0px; text-transform: none; word-spacing: 0px;&quot;&gt;&lt;b style=&quot;color: slategray; font-size: 20px;&quot;&gt;Planeta:&lt;/b&gt;&lt;span style=&quot;font-size: 20px;&quot;&gt;&amp;nbsp;&lt;/span&gt;Plutão&lt;/p&gt;&lt;p style=&quot;color: rgb(57, 65, 69); font-size: 20px; font-style: normal; font-weight: 400; letter-spacing: normal; text-indent: 0px; text-transform: none; word-spacing: 0px;&quot;&gt;&lt;b style=&quot;color: slategray; font-size: 20px;&quot;&gt;Duração:&lt;/b&gt;&lt;span style=&quot;font-size: 20px;&quot;&gt;&amp;nbsp;&lt;/span&gt;52&lt;/p&gt;&lt;p style=&quot;color: rgb(57, 65, 69); font-size: 20px; font-style: normal; font-weight: 400; letter-spacing: normal; text-indent: 0px; text-transform: none; word-spacing: 0px;&quot;&gt;&lt;b style=&quot;color: slategray; font-size: 20px;&quot;&gt;Data:&lt;/b&gt;&lt;span style=&quot;font-size: 20px;&quot;&gt;&amp;nbsp;&lt;/span&gt;2021-04-21&lt;/p&gt;" style="rounded=1;whiteSpace=wrap;html=1;labelBackgroundColor=none;fontSize=20;fontColor=#000000;align=left;spacingLeft=23;" vertex="1" parent="uhxujcsQMTb9jiqaK-6d-1">
          <mxGeometry x="70" y="1590" width="540" height="210" as="geometry" />
        </mxCell>
        <mxCell id="qcHzUpOC3n5mlYQ7XM8k-41" value="" style="rounded=1;whiteSpace=wrap;html=1;labelBackgroundColor=none;fontSize=30;fontColor=#000000;" vertex="1" parent="uhxujcsQMTb9jiqaK-6d-1">
          <mxGeometry x="690" y="1590" width="540" height="210" as="geometry" />
        </mxCell>
        <mxCell id="qcHzUpOC3n5mlYQ7XM8k-42" value="" style="rounded=1;whiteSpace=wrap;html=1;labelBackgroundColor=none;fontSize=30;fontColor=#000000;" vertex="1" parent="uhxujcsQMTb9jiqaK-6d-1">
          <mxGeometry x="1310" y="1590" width="540" height="210" as="geometry" />
        </mxCell>
        <mxCell id="qcHzUpOC3n5mlYQ7XM8k-43" value="" style="rounded=1;whiteSpace=wrap;html=1;labelBackgroundColor=none;fontSize=30;fontColor=#000000;" vertex="1" parent="uhxujcsQMTb9jiqaK-6d-1">
          <mxGeometry x="70" y="1850" width="540" height="210" as="geometry" />
        </mxCell>
        <mxCell id="qcHzUpOC3n5mlYQ7XM8k-44" value="" style="rounded=1;whiteSpace=wrap;html=1;labelBackgroundColor=none;fontSize=30;fontColor=#000000;" vertex="1" parent="uhxujcsQMTb9jiqaK-6d-1">
          <mxGeometry x="690" y="1850" width="540" height="210" as="geometry" />
        </mxCell>
        <mxCell id="qcHzUpOC3n5mlYQ7XM8k-45" value="" style="rounded=1;whiteSpace=wrap;html=1;labelBackgroundColor=none;fontSize=30;fontColor=#000000;" vertex="1" parent="uhxujcsQMTb9jiqaK-6d-1">
          <mxGeometry x="1310" y="1850" width="540" height="210" as="geometry" />
        </mxCell>
        <mxCell id="qcHzUpOC3n5mlYQ7XM8k-46" value="" style="rounded=1;whiteSpace=wrap;html=1;labelBackgroundColor=none;fontSize=30;fontColor=#000000;" vertex="1" parent="uhxujcsQMTb9jiqaK-6d-1">
          <mxGeometry x="70" y="2110" width="540" height="210" as="geometry" />
        </mxCell>
        <mxCell id="qcHzUpOC3n5mlYQ7XM8k-47" value="" style="rounded=1;whiteSpace=wrap;html=1;labelBackgroundColor=none;fontSize=30;fontColor=#000000;" vertex="1" parent="uhxujcsQMTb9jiqaK-6d-1">
          <mxGeometry x="690" y="2110" width="540" height="210" as="geometry" />
        </mxCell>
        <mxCell id="qcHzUpOC3n5mlYQ7XM8k-48" value="" style="rounded=1;whiteSpace=wrap;html=1;labelBackgroundColor=none;fontSize=30;fontColor=#000000;" vertex="1" parent="uhxujcsQMTb9jiqaK-6d-1">
          <mxGeometry x="1310" y="2110" width="540" height="210" as="geometry" />
        </mxCell>
        <mxCell id="qcHzUpOC3n5mlYQ7XM8k-49" value="" style="verticalLabelPosition=bottom;shadow=0;dashed=0;align=center;html=1;verticalAlign=top;strokeWidth=1;shape=mxgraph.mockup.forms.splitter;strokeColor=#999999;direction=north;labelBackgroundColor=none;fontSize=30;fontColor=#000000;" vertex="1" parent="uhxujcsQMTb9jiqaK-6d-1">
          <mxGeometry x="1880" y="1510" width="30" height="840" as="geometry" />
        </mxCell>
        <mxCell id="qcHzUpOC3n5mlYQ7XM8k-52" value="&lt;p style=&quot;color: rgb(57, 65, 69); font-size: 20px; font-style: normal; font-weight: 400; letter-spacing: normal; text-indent: 0px; text-transform: none; word-spacing: 0px;&quot;&gt;&lt;b style=&quot;color: slategray; font-size: 20px;&quot;&gt;Nome:&lt;/b&gt;&lt;span style=&quot;font-size: 20px;&quot;&gt;&amp;nbsp;&lt;/span&gt;Plutão é planeta sim!&lt;/p&gt;&lt;p style=&quot;color: rgb(57, 65, 69); font-size: 20px; font-style: normal; font-weight: 400; letter-spacing: normal; text-indent: 0px; text-transform: none; word-spacing: 0px;&quot;&gt;&lt;b style=&quot;color: slategray; font-size: 20px;&quot;&gt;Descrição:&lt;/b&gt;&lt;span style=&quot;font-size: 20px;&quot;&gt;&amp;nbsp;&lt;/span&gt;Desvende os mistérios de plutão&lt;/p&gt;&lt;p style=&quot;color: rgb(57, 65, 69); font-size: 20px; font-style: normal; font-weight: 400; letter-spacing: normal; text-indent: 0px; text-transform: none; word-spacing: 0px;&quot;&gt;&lt;b style=&quot;color: slategray; font-size: 20px;&quot;&gt;Planeta:&lt;/b&gt;&lt;span style=&quot;font-size: 20px;&quot;&gt;&amp;nbsp;&lt;/span&gt;Plutão&lt;/p&gt;&lt;p style=&quot;color: rgb(57, 65, 69); font-size: 20px; font-style: normal; font-weight: 400; letter-spacing: normal; text-indent: 0px; text-transform: none; word-spacing: 0px;&quot;&gt;&lt;b style=&quot;color: slategray; font-size: 20px;&quot;&gt;Duração:&lt;/b&gt;&lt;span style=&quot;font-size: 20px;&quot;&gt;&amp;nbsp;&lt;/span&gt;52&lt;/p&gt;&lt;p style=&quot;color: rgb(57, 65, 69); font-size: 20px; font-style: normal; font-weight: 400; letter-spacing: normal; text-indent: 0px; text-transform: none; word-spacing: 0px;&quot;&gt;&lt;b style=&quot;color: slategray; font-size: 20px;&quot;&gt;Data:&lt;/b&gt;&lt;span style=&quot;font-size: 20px;&quot;&gt;&amp;nbsp;&lt;/span&gt;2021-04-21&lt;/p&gt;" style="rounded=1;whiteSpace=wrap;html=1;labelBackgroundColor=none;fontSize=20;fontColor=#000000;align=left;spacingLeft=23;" vertex="1" parent="uhxujcsQMTb9jiqaK-6d-1">
          <mxGeometry x="690" y="1590" width="540" height="210" as="geometry" />
        </mxCell>
        <mxCell id="qcHzUpOC3n5mlYQ7XM8k-53" value="&lt;p style=&quot;color: rgb(57, 65, 69); font-size: 20px; font-style: normal; font-weight: 400; letter-spacing: normal; text-indent: 0px; text-transform: none; word-spacing: 0px;&quot;&gt;&lt;b style=&quot;color: slategray; font-size: 20px;&quot;&gt;Nome:&lt;/b&gt;&lt;span style=&quot;font-size: 20px;&quot;&gt;&amp;nbsp;&lt;/span&gt;Plutão é planeta sim!&lt;/p&gt;&lt;p style=&quot;color: rgb(57, 65, 69); font-size: 20px; font-style: normal; font-weight: 400; letter-spacing: normal; text-indent: 0px; text-transform: none; word-spacing: 0px;&quot;&gt;&lt;b style=&quot;color: slategray; font-size: 20px;&quot;&gt;Descrição:&lt;/b&gt;&lt;span style=&quot;font-size: 20px;&quot;&gt;&amp;nbsp;&lt;/span&gt;Desvende os mistérios de plutão&lt;/p&gt;&lt;p style=&quot;color: rgb(57, 65, 69); font-size: 20px; font-style: normal; font-weight: 400; letter-spacing: normal; text-indent: 0px; text-transform: none; word-spacing: 0px;&quot;&gt;&lt;b style=&quot;color: slategray; font-size: 20px;&quot;&gt;Planeta:&lt;/b&gt;&lt;span style=&quot;font-size: 20px;&quot;&gt;&amp;nbsp;&lt;/span&gt;Plutão&lt;/p&gt;&lt;p style=&quot;color: rgb(57, 65, 69); font-size: 20px; font-style: normal; font-weight: 400; letter-spacing: normal; text-indent: 0px; text-transform: none; word-spacing: 0px;&quot;&gt;&lt;b style=&quot;color: slategray; font-size: 20px;&quot;&gt;Duração:&lt;/b&gt;&lt;span style=&quot;font-size: 20px;&quot;&gt;&amp;nbsp;&lt;/span&gt;52&lt;/p&gt;&lt;p style=&quot;color: rgb(57, 65, 69); font-size: 20px; font-style: normal; font-weight: 400; letter-spacing: normal; text-indent: 0px; text-transform: none; word-spacing: 0px;&quot;&gt;&lt;b style=&quot;color: slategray; font-size: 20px;&quot;&gt;Data:&lt;/b&gt;&lt;span style=&quot;font-size: 20px;&quot;&gt;&amp;nbsp;&lt;/span&gt;2021-04-21&lt;/p&gt;" style="rounded=1;whiteSpace=wrap;html=1;labelBackgroundColor=none;fontSize=20;fontColor=#000000;align=left;spacingLeft=23;" vertex="1" parent="uhxujcsQMTb9jiqaK-6d-1">
          <mxGeometry x="1310" y="1590" width="540" height="210" as="geometry" />
        </mxCell>
        <mxCell id="qcHzUpOC3n5mlYQ7XM8k-54" value="&lt;p style=&quot;color: rgb(57, 65, 69); font-size: 20px; font-style: normal; font-weight: 400; letter-spacing: normal; text-indent: 0px; text-transform: none; word-spacing: 0px;&quot;&gt;&lt;b style=&quot;color: slategray; font-size: 20px;&quot;&gt;Nome:&lt;/b&gt;&lt;span style=&quot;font-size: 20px;&quot;&gt;&amp;nbsp;&lt;/span&gt;Plutão é planeta sim!&lt;/p&gt;&lt;p style=&quot;color: rgb(57, 65, 69); font-size: 20px; font-style: normal; font-weight: 400; letter-spacing: normal; text-indent: 0px; text-transform: none; word-spacing: 0px;&quot;&gt;&lt;b style=&quot;color: slategray; font-size: 20px;&quot;&gt;Descrição:&lt;/b&gt;&lt;span style=&quot;font-size: 20px;&quot;&gt;&amp;nbsp;&lt;/span&gt;Desvende os mistérios de plutão&lt;/p&gt;&lt;p style=&quot;color: rgb(57, 65, 69); font-size: 20px; font-style: normal; font-weight: 400; letter-spacing: normal; text-indent: 0px; text-transform: none; word-spacing: 0px;&quot;&gt;&lt;b style=&quot;color: slategray; font-size: 20px;&quot;&gt;Planeta:&lt;/b&gt;&lt;span style=&quot;font-size: 20px;&quot;&gt;&amp;nbsp;&lt;/span&gt;Plutão&lt;/p&gt;&lt;p style=&quot;color: rgb(57, 65, 69); font-size: 20px; font-style: normal; font-weight: 400; letter-spacing: normal; text-indent: 0px; text-transform: none; word-spacing: 0px;&quot;&gt;&lt;b style=&quot;color: slategray; font-size: 20px;&quot;&gt;Duração:&lt;/b&gt;&lt;span style=&quot;font-size: 20px;&quot;&gt;&amp;nbsp;&lt;/span&gt;52&lt;/p&gt;&lt;p style=&quot;color: rgb(57, 65, 69); font-size: 20px; font-style: normal; font-weight: 400; letter-spacing: normal; text-indent: 0px; text-transform: none; word-spacing: 0px;&quot;&gt;&lt;b style=&quot;color: slategray; font-size: 20px;&quot;&gt;Data:&lt;/b&gt;&lt;span style=&quot;font-size: 20px;&quot;&gt;&amp;nbsp;&lt;/span&gt;2021-04-21&lt;/p&gt;" style="rounded=1;whiteSpace=wrap;html=1;labelBackgroundColor=none;fontSize=20;fontColor=#000000;align=left;spacingLeft=23;" vertex="1" parent="uhxujcsQMTb9jiqaK-6d-1">
          <mxGeometry x="70" y="1850" width="540" height="210" as="geometry" />
        </mxCell>
        <mxCell id="qcHzUpOC3n5mlYQ7XM8k-55" value="&lt;p style=&quot;color: rgb(57, 65, 69); font-size: 20px; font-style: normal; font-weight: 400; letter-spacing: normal; text-indent: 0px; text-transform: none; word-spacing: 0px;&quot;&gt;&lt;b style=&quot;color: slategray; font-size: 20px;&quot;&gt;Nome:&lt;/b&gt;&lt;span style=&quot;font-size: 20px;&quot;&gt;&amp;nbsp;&lt;/span&gt;Plutão é planeta sim!&lt;/p&gt;&lt;p style=&quot;color: rgb(57, 65, 69); font-size: 20px; font-style: normal; font-weight: 400; letter-spacing: normal; text-indent: 0px; text-transform: none; word-spacing: 0px;&quot;&gt;&lt;b style=&quot;color: slategray; font-size: 20px;&quot;&gt;Descrição:&lt;/b&gt;&lt;span style=&quot;font-size: 20px;&quot;&gt;&amp;nbsp;&lt;/span&gt;Desvende os mistérios de plutão&lt;/p&gt;&lt;p style=&quot;color: rgb(57, 65, 69); font-size: 20px; font-style: normal; font-weight: 400; letter-spacing: normal; text-indent: 0px; text-transform: none; word-spacing: 0px;&quot;&gt;&lt;b style=&quot;color: slategray; font-size: 20px;&quot;&gt;Planeta:&lt;/b&gt;&lt;span style=&quot;font-size: 20px;&quot;&gt;&amp;nbsp;&lt;/span&gt;Plutão&lt;/p&gt;&lt;p style=&quot;color: rgb(57, 65, 69); font-size: 20px; font-style: normal; font-weight: 400; letter-spacing: normal; text-indent: 0px; text-transform: none; word-spacing: 0px;&quot;&gt;&lt;b style=&quot;color: slategray; font-size: 20px;&quot;&gt;Duração:&lt;/b&gt;&lt;span style=&quot;font-size: 20px;&quot;&gt;&amp;nbsp;&lt;/span&gt;52&lt;/p&gt;&lt;p style=&quot;color: rgb(57, 65, 69); font-size: 20px; font-style: normal; font-weight: 400; letter-spacing: normal; text-indent: 0px; text-transform: none; word-spacing: 0px;&quot;&gt;&lt;b style=&quot;color: slategray; font-size: 20px;&quot;&gt;Data:&lt;/b&gt;&lt;span style=&quot;font-size: 20px;&quot;&gt;&amp;nbsp;&lt;/span&gt;2021-04-21&lt;/p&gt;" style="rounded=1;whiteSpace=wrap;html=1;labelBackgroundColor=none;fontSize=20;fontColor=#000000;align=left;spacingLeft=23;" vertex="1" parent="uhxujcsQMTb9jiqaK-6d-1">
          <mxGeometry x="690" y="1850" width="540" height="210" as="geometry" />
        </mxCell>
        <mxCell id="qcHzUpOC3n5mlYQ7XM8k-56" value="&lt;p style=&quot;color: rgb(57, 65, 69); font-size: 20px; font-style: normal; font-weight: 400; letter-spacing: normal; text-indent: 0px; text-transform: none; word-spacing: 0px;&quot;&gt;&lt;b style=&quot;color: slategray; font-size: 20px;&quot;&gt;Nome:&lt;/b&gt;&lt;span style=&quot;font-size: 20px;&quot;&gt;&amp;nbsp;&lt;/span&gt;Plutão é planeta sim!&lt;/p&gt;&lt;p style=&quot;color: rgb(57, 65, 69); font-size: 20px; font-style: normal; font-weight: 400; letter-spacing: normal; text-indent: 0px; text-transform: none; word-spacing: 0px;&quot;&gt;&lt;b style=&quot;color: slategray; font-size: 20px;&quot;&gt;Descrição:&lt;/b&gt;&lt;span style=&quot;font-size: 20px;&quot;&gt;&amp;nbsp;&lt;/span&gt;Desvende os mistérios de plutão&lt;/p&gt;&lt;p style=&quot;color: rgb(57, 65, 69); font-size: 20px; font-style: normal; font-weight: 400; letter-spacing: normal; text-indent: 0px; text-transform: none; word-spacing: 0px;&quot;&gt;&lt;b style=&quot;color: slategray; font-size: 20px;&quot;&gt;Planeta:&lt;/b&gt;&lt;span style=&quot;font-size: 20px;&quot;&gt;&amp;nbsp;&lt;/span&gt;Plutão&lt;/p&gt;&lt;p style=&quot;color: rgb(57, 65, 69); font-size: 20px; font-style: normal; font-weight: 400; letter-spacing: normal; text-indent: 0px; text-transform: none; word-spacing: 0px;&quot;&gt;&lt;b style=&quot;color: slategray; font-size: 20px;&quot;&gt;Duração:&lt;/b&gt;&lt;span style=&quot;font-size: 20px;&quot;&gt;&amp;nbsp;&lt;/span&gt;52&lt;/p&gt;&lt;p style=&quot;color: rgb(57, 65, 69); font-size: 20px; font-style: normal; font-weight: 400; letter-spacing: normal; text-indent: 0px; text-transform: none; word-spacing: 0px;&quot;&gt;&lt;b style=&quot;color: slategray; font-size: 20px;&quot;&gt;Data:&lt;/b&gt;&lt;span style=&quot;font-size: 20px;&quot;&gt;&amp;nbsp;&lt;/span&gt;2021-04-21&lt;/p&gt;" style="rounded=1;whiteSpace=wrap;html=1;labelBackgroundColor=none;fontSize=20;fontColor=#000000;align=left;spacingLeft=23;" vertex="1" parent="uhxujcsQMTb9jiqaK-6d-1">
          <mxGeometry x="1310" y="1850" width="540" height="210" as="geometry" />
        </mxCell>
        <mxCell id="qcHzUpOC3n5mlYQ7XM8k-60" value="&lt;p style=&quot;color: rgb(57, 65, 69); font-size: 20px; font-style: normal; font-weight: 400; letter-spacing: normal; text-indent: 0px; text-transform: none; word-spacing: 0px;&quot;&gt;&lt;b style=&quot;color: slategray; font-size: 20px;&quot;&gt;Nome:&lt;/b&gt;&lt;span style=&quot;font-size: 20px;&quot;&gt;&amp;nbsp;&lt;/span&gt;Plutão é planeta sim!&lt;/p&gt;&lt;p style=&quot;color: rgb(57, 65, 69); font-size: 20px; font-style: normal; font-weight: 400; letter-spacing: normal; text-indent: 0px; text-transform: none; word-spacing: 0px;&quot;&gt;&lt;b style=&quot;color: slategray; font-size: 20px;&quot;&gt;Descrição:&lt;/b&gt;&lt;span style=&quot;font-size: 20px;&quot;&gt;&amp;nbsp;&lt;/span&gt;Desvende os mistérios de plutão&lt;/p&gt;&lt;p style=&quot;color: rgb(57, 65, 69); font-size: 20px; font-style: normal; font-weight: 400; letter-spacing: normal; text-indent: 0px; text-transform: none; word-spacing: 0px;&quot;&gt;&lt;b style=&quot;color: slategray; font-size: 20px;&quot;&gt;Planeta:&lt;/b&gt;&lt;span style=&quot;font-size: 20px;&quot;&gt;&amp;nbsp;&lt;/span&gt;Plutão&lt;/p&gt;&lt;p style=&quot;color: rgb(57, 65, 69); font-size: 20px; font-style: normal; font-weight: 400; letter-spacing: normal; text-indent: 0px; text-transform: none; word-spacing: 0px;&quot;&gt;&lt;b style=&quot;color: slategray; font-size: 20px;&quot;&gt;Duração:&lt;/b&gt;&lt;span style=&quot;font-size: 20px;&quot;&gt;&amp;nbsp;&lt;/span&gt;52&lt;/p&gt;&lt;p style=&quot;color: rgb(57, 65, 69); font-size: 20px; font-style: normal; font-weight: 400; letter-spacing: normal; text-indent: 0px; text-transform: none; word-spacing: 0px;&quot;&gt;&lt;b style=&quot;color: slategray; font-size: 20px;&quot;&gt;Data:&lt;/b&gt;&lt;span style=&quot;font-size: 20px;&quot;&gt;&amp;nbsp;&lt;/span&gt;2021-04-21&lt;/p&gt;" style="rounded=1;whiteSpace=wrap;html=1;labelBackgroundColor=none;fontSize=20;fontColor=#000000;align=left;spacingLeft=23;" vertex="1" parent="uhxujcsQMTb9jiqaK-6d-1">
          <mxGeometry x="70" y="2110" width="540" height="210" as="geometry" />
        </mxCell>
        <mxCell id="qcHzUpOC3n5mlYQ7XM8k-61" value="&lt;p style=&quot;color: rgb(57, 65, 69); font-size: 20px; font-style: normal; font-weight: 400; letter-spacing: normal; text-indent: 0px; text-transform: none; word-spacing: 0px;&quot;&gt;&lt;b style=&quot;color: slategray; font-size: 20px;&quot;&gt;Nome:&lt;/b&gt;&lt;span style=&quot;font-size: 20px;&quot;&gt;&amp;nbsp;&lt;/span&gt;Plutão é planeta sim!&lt;/p&gt;&lt;p style=&quot;color: rgb(57, 65, 69); font-size: 20px; font-style: normal; font-weight: 400; letter-spacing: normal; text-indent: 0px; text-transform: none; word-spacing: 0px;&quot;&gt;&lt;b style=&quot;color: slategray; font-size: 20px;&quot;&gt;Descrição:&lt;/b&gt;&lt;span style=&quot;font-size: 20px;&quot;&gt;&amp;nbsp;&lt;/span&gt;Desvende os mistérios de plutão&lt;/p&gt;&lt;p style=&quot;color: rgb(57, 65, 69); font-size: 20px; font-style: normal; font-weight: 400; letter-spacing: normal; text-indent: 0px; text-transform: none; word-spacing: 0px;&quot;&gt;&lt;b style=&quot;color: slategray; font-size: 20px;&quot;&gt;Planeta:&lt;/b&gt;&lt;span style=&quot;font-size: 20px;&quot;&gt;&amp;nbsp;&lt;/span&gt;Plutão&lt;/p&gt;&lt;p style=&quot;color: rgb(57, 65, 69); font-size: 20px; font-style: normal; font-weight: 400; letter-spacing: normal; text-indent: 0px; text-transform: none; word-spacing: 0px;&quot;&gt;&lt;b style=&quot;color: slategray; font-size: 20px;&quot;&gt;Duração:&lt;/b&gt;&lt;span style=&quot;font-size: 20px;&quot;&gt;&amp;nbsp;&lt;/span&gt;52&lt;/p&gt;&lt;p style=&quot;color: rgb(57, 65, 69); font-size: 20px; font-style: normal; font-weight: 400; letter-spacing: normal; text-indent: 0px; text-transform: none; word-spacing: 0px;&quot;&gt;&lt;b style=&quot;color: slategray; font-size: 20px;&quot;&gt;Data:&lt;/b&gt;&lt;span style=&quot;font-size: 20px;&quot;&gt;&amp;nbsp;&lt;/span&gt;2021-04-21&lt;/p&gt;" style="rounded=1;whiteSpace=wrap;html=1;labelBackgroundColor=none;fontSize=20;fontColor=#000000;align=left;spacingLeft=23;" vertex="1" parent="uhxujcsQMTb9jiqaK-6d-1">
          <mxGeometry x="690" y="2110" width="540" height="210" as="geometry" />
        </mxCell>
        <mxCell id="qcHzUpOC3n5mlYQ7XM8k-62" value="&lt;p style=&quot;color: rgb(57, 65, 69); font-size: 20px; font-style: normal; font-weight: 400; letter-spacing: normal; text-indent: 0px; text-transform: none; word-spacing: 0px;&quot;&gt;&lt;b style=&quot;color: slategray; font-size: 20px;&quot;&gt;Nome:&lt;/b&gt;&lt;span style=&quot;font-size: 20px;&quot;&gt;&amp;nbsp;&lt;/span&gt;Plutão é planeta sim!&lt;/p&gt;&lt;p style=&quot;color: rgb(57, 65, 69); font-size: 20px; font-style: normal; font-weight: 400; letter-spacing: normal; text-indent: 0px; text-transform: none; word-spacing: 0px;&quot;&gt;&lt;b style=&quot;color: slategray; font-size: 20px;&quot;&gt;Descrição:&lt;/b&gt;&lt;span style=&quot;font-size: 20px;&quot;&gt;&amp;nbsp;&lt;/span&gt;Desvende os mistérios de plutão&lt;/p&gt;&lt;p style=&quot;color: rgb(57, 65, 69); font-size: 20px; font-style: normal; font-weight: 400; letter-spacing: normal; text-indent: 0px; text-transform: none; word-spacing: 0px;&quot;&gt;&lt;b style=&quot;color: slategray; font-size: 20px;&quot;&gt;Planeta:&lt;/b&gt;&lt;span style=&quot;font-size: 20px;&quot;&gt;&amp;nbsp;&lt;/span&gt;Plutão&lt;/p&gt;&lt;p style=&quot;color: rgb(57, 65, 69); font-size: 20px; font-style: normal; font-weight: 400; letter-spacing: normal; text-indent: 0px; text-transform: none; word-spacing: 0px;&quot;&gt;&lt;b style=&quot;color: slategray; font-size: 20px;&quot;&gt;Duração:&lt;/b&gt;&lt;span style=&quot;font-size: 20px;&quot;&gt;&amp;nbsp;&lt;/span&gt;52&lt;/p&gt;&lt;p style=&quot;color: rgb(57, 65, 69); font-size: 20px; font-style: normal; font-weight: 400; letter-spacing: normal; text-indent: 0px; text-transform: none; word-spacing: 0px;&quot;&gt;&lt;b style=&quot;color: slategray; font-size: 20px;&quot;&gt;Data:&lt;/b&gt;&lt;span style=&quot;font-size: 20px;&quot;&gt;&amp;nbsp;&lt;/span&gt;2021-04-21&lt;/p&gt;" style="rounded=1;whiteSpace=wrap;html=1;labelBackgroundColor=none;fontSize=20;fontColor=#000000;align=left;spacingLeft=23;" vertex="1" parent="uhxujcsQMTb9jiqaK-6d-1">
          <mxGeometry x="1310" y="2110" width="540" height="210" as="geometry" />
        </mxCell>
        <mxCell id="qcHzUpOC3n5mlYQ7XM8k-65" value="LabeX" style="shape=ext;double=1;rounded=0;whiteSpace=wrap;html=1;labelBackgroundColor=none;fontSize=42;fontColor=#000000;" vertex="1" parent="uhxujcsQMTb9jiqaK-6d-1">
          <mxGeometry y="3720" width="1920" height="150" as="geometry" />
        </mxCell>
        <mxCell id="qcHzUpOC3n5mlYQ7XM8k-66" value="" style="shape=image;html=1;verticalAlign=top;verticalLabelPosition=bottom;labelBackgroundColor=#ffffff;imageAspect=0;aspect=fixed;image=https://cdn4.iconfinder.com/data/icons/social-media-and-logos-12/32/Logo_Whatsapp_telephone_handset-128.png;fontSize=42;fontColor=#000000;" vertex="1" parent="uhxujcsQMTb9jiqaK-6d-1">
          <mxGeometry x="50" y="3765" width="70" height="70" as="geometry" />
        </mxCell>
        <mxCell id="qcHzUpOC3n5mlYQ7XM8k-67" value="" style="shape=image;html=1;verticalAlign=top;verticalLabelPosition=bottom;labelBackgroundColor=#ffffff;imageAspect=0;aspect=fixed;image=https://cdn3.iconfinder.com/data/icons/peelicons-vol-1/50/Facebook-128.png;fontSize=42;fontColor=#000000;" vertex="1" parent="uhxujcsQMTb9jiqaK-6d-1">
          <mxGeometry x="150" y="3760" width="80" height="80" as="geometry" />
        </mxCell>
        <mxCell id="qcHzUpOC3n5mlYQ7XM8k-68" value="" style="shape=image;html=1;verticalAlign=top;verticalLabelPosition=bottom;labelBackgroundColor=#ffffff;imageAspect=0;aspect=fixed;image=https://cdn4.iconfinder.com/data/icons/social-media-and-logos-12/32/Logo_Instagram-128.png;fontSize=42;fontColor=#000000;" vertex="1" parent="uhxujcsQMTb9jiqaK-6d-1">
          <mxGeometry x="260" y="3756" width="88" height="88" as="geometry" />
        </mxCell>
        <mxCell id="qcHzUpOC3n5mlYQ7XM8k-69" value="" style="shape=image;html=1;verticalAlign=top;verticalLabelPosition=bottom;labelBackgroundColor=#ffffff;imageAspect=0;aspect=fixed;image=https://cdn2.iconfinder.com/data/icons/social-media-2198/64/twitter_social_media_network-128.png;fontSize=42;fontColor=#000000;" vertex="1" parent="uhxujcsQMTb9jiqaK-6d-1">
          <mxGeometry x="360" y="3746" width="108" height="108" as="geometry" />
        </mxCell>
        <mxCell id="qcHzUpOC3n5mlYQ7XM8k-70" value="Av. do Futuro, 2050&lt;br style=&quot;font-size: 28px;&quot;&gt;" style="text;html=1;strokeColor=none;fillColor=none;align=center;verticalAlign=middle;whiteSpace=wrap;rounded=0;labelBackgroundColor=none;fontSize=28;fontColor=#000000;" vertex="1" parent="uhxujcsQMTb9jiqaK-6d-1">
          <mxGeometry x="1380" y="3790" width="510" height="20" as="geometry" />
        </mxCell>
        <mxCell id="qcHzUpOC3n5mlYQ7XM8k-71" value="LABE X&lt;br&gt;Space Travel" style="rounded=0;whiteSpace=wrap;html=1;fontStyle=1;labelBackgroundColor=none;fontSize=50;" vertex="1" parent="uhxujcsQMTb9jiqaK-6d-1">
          <mxGeometry y="2680" width="1920" height="170" as="geometry" />
        </mxCell>
        <mxCell id="qcHzUpOC3n5mlYQ7XM8k-73" value="" style="shape=image;html=1;verticalAlign=top;verticalLabelPosition=bottom;labelBackgroundColor=#ffffff;imageAspect=0;aspect=fixed;image=https://cdn2.iconfinder.com/data/icons/navigation-set-arrows-part-two/32/Arrow_Left-128.png;fontSize=28;fontColor=#000000;" vertex="1" parent="uhxujcsQMTb9jiqaK-6d-1">
          <mxGeometry x="40" y="2702" width="128" height="128" as="geometry" />
        </mxCell>
        <mxCell id="qcHzUpOC3n5mlYQ7XM8k-75" value="FAÇA SUA INSCRIÇÃO" style="text;strokeColor=none;fillColor=none;html=1;fontSize=32;fontStyle=1;verticalAlign=middle;align=center;labelBackgroundColor=none;fontColor=#000000;" vertex="1" parent="uhxujcsQMTb9jiqaK-6d-1">
          <mxGeometry x="764" y="2950" width="373" height="70" as="geometry" />
        </mxCell>
        <mxCell id="qcHzUpOC3n5mlYQ7XM8k-76" value="Escolha uma viagem" style="strokeWidth=1;shadow=0;dashed=0;align=center;html=1;shape=mxgraph.mockup.forms.comboBox;strokeColor=#999999;fillColor=#ddeeff;align=left;fillColor2=#aaddff;mainText=;fontColor=#666666;fontSize=17;spacingLeft=3;labelBackgroundColor=none;" vertex="1" parent="uhxujcsQMTb9jiqaK-6d-1">
          <mxGeometry x="680" y="3060" width="560" height="50" as="geometry" />
        </mxCell>
        <mxCell id="qcHzUpOC3n5mlYQ7XM8k-79" value="Nome:" style="html=1;shadow=0;dashed=0;shape=mxgraph.bootstrap.rrect;rSize=5;strokeColor=#CED4DA;strokeWidth=1;fillColor=#E9ECEF;fontColor=#505050;whiteSpace=wrap;align=left;verticalAlign=middle;spacingLeft=10;fontSize=14;labelBackgroundColor=none;" vertex="1" parent="uhxujcsQMTb9jiqaK-6d-1">
          <mxGeometry x="680" y="3130" width="370" height="50" as="geometry" />
        </mxCell>
        <mxCell id="qcHzUpOC3n5mlYQ7XM8k-80" value="Porque devemos escolher você?" style="html=1;shadow=0;dashed=0;shape=mxgraph.bootstrap.rrect;rSize=5;strokeColor=#CED4DA;strokeWidth=1;fillColor=#E9ECEF;fontColor=#505050;whiteSpace=wrap;align=left;verticalAlign=middle;spacingLeft=10;fontSize=14;labelBackgroundColor=none;spacing=2;" vertex="1" parent="uhxujcsQMTb9jiqaK-6d-1">
          <mxGeometry x="680" y="3325" width="560" height="115" as="geometry" />
        </mxCell>
        <mxCell id="qcHzUpOC3n5mlYQ7XM8k-81" value="Idade:" style="html=1;shadow=0;dashed=0;shape=mxgraph.bootstrap.rrect;rSize=5;strokeColor=#CED4DA;strokeWidth=1;fillColor=#E9ECEF;fontColor=#505050;whiteSpace=wrap;align=left;verticalAlign=middle;spacingLeft=10;fontSize=14;labelBackgroundColor=none;" vertex="1" parent="uhxujcsQMTb9jiqaK-6d-1">
          <mxGeometry x="1080" y="3130" width="160" height="50" as="geometry" />
        </mxCell>
        <mxCell id="qcHzUpOC3n5mlYQ7XM8k-82" value="Profissão:" style="html=1;shadow=0;dashed=0;shape=mxgraph.bootstrap.rrect;rSize=5;strokeColor=#CED4DA;strokeWidth=1;fillColor=#E9ECEF;fontColor=#505050;whiteSpace=wrap;align=left;verticalAlign=middle;spacingLeft=10;fontSize=14;labelBackgroundColor=none;" vertex="1" parent="uhxujcsQMTb9jiqaK-6d-1">
          <mxGeometry x="680" y="3200" width="560" height="50" as="geometry" />
        </mxCell>
        <mxCell id="qcHzUpOC3n5mlYQ7XM8k-83" value="País" style="strokeWidth=1;shadow=0;dashed=0;align=center;html=1;shape=mxgraph.mockup.forms.comboBox;strokeColor=#999999;fillColor=#ddeeff;align=left;fillColor2=#aaddff;mainText=;fontColor=#666666;fontSize=17;spacingLeft=3;labelBackgroundColor=none;" vertex="1" parent="uhxujcsQMTb9jiqaK-6d-1">
          <mxGeometry x="680" y="3260" width="560" height="50" as="geometry" />
        </mxCell>
        <mxCell id="qcHzUpOC3n5mlYQ7XM8k-91" value="&lt;font style=&quot;font-size: 20px&quot;&gt;ENVIAR&lt;/font&gt;" style="labelPosition=center;verticalLabelPosition=middle;align=center;html=1;shape=mxgraph.basic.shaded_button;dx=10;fillColor=#E6E6E6;strokeColor=none;labelBackgroundColor=none;fontSize=32;fontColor=#000000;" vertex="1" parent="uhxujcsQMTb9jiqaK-6d-1">
          <mxGeometry x="920" y="3470" width="100" height="60" as="geometry" />
        </mxCell>
        <mxCell id="qcHzUpOC3n5mlYQ7XM8k-98" style="edgeStyle=orthogonalEdgeStyle;rounded=0;orthogonalLoop=1;jettySize=auto;html=1;exitX=0.5;exitY=1;exitDx=0;exitDy=0;fontSize=32;fontColor=#000000;" edge="1" parent="uhxujcsQMTb9jiqaK-6d-1" source="4sQxQ9YIxLQr8alm6cPx-9">
          <mxGeometry relative="1" as="geometry">
            <mxPoint x="1290" y="1300" as="targetPoint" />
          </mxGeometry>
        </mxCell>
        <mxCell id="qcHzUpOC3n5mlYQ7XM8k-102" value="" style="rounded=0;whiteSpace=wrap;html=1;labelBackgroundColor=none;fontSize=28;fontColor=#000000;" vertex="1" parent="uhxujcsQMTb9jiqaK-6d-1">
          <mxGeometry x="2050" width="1790" height="1200" as="geometry" />
        </mxCell>
        <mxCell id="qcHzUpOC3n5mlYQ7XM8k-103" value="LABE X&lt;br&gt;Space Travel" style="rounded=0;whiteSpace=wrap;html=1;fontStyle=1;labelBackgroundColor=none;fontSize=50;" vertex="1" parent="uhxujcsQMTb9jiqaK-6d-1">
          <mxGeometry x="2050" width="1790" height="170" as="geometry" />
        </mxCell>
        <mxCell id="qcHzUpOC3n5mlYQ7XM8k-106" value="LabeX" style="shape=ext;double=1;rounded=0;whiteSpace=wrap;html=1;labelBackgroundColor=none;fontSize=42;fontColor=#000000;" vertex="1" parent="uhxujcsQMTb9jiqaK-6d-1">
          <mxGeometry x="2050" y="1050" width="1790" height="150" as="geometry" />
        </mxCell>
        <mxCell id="qcHzUpOC3n5mlYQ7XM8k-107" value="" style="shape=image;html=1;verticalAlign=top;verticalLabelPosition=bottom;labelBackgroundColor=#ffffff;imageAspect=0;aspect=fixed;image=https://cdn4.iconfinder.com/data/icons/social-media-and-logos-12/32/Logo_Whatsapp_telephone_handset-128.png;fontSize=42;fontColor=#000000;" vertex="1" parent="uhxujcsQMTb9jiqaK-6d-1">
          <mxGeometry x="2070" y="1095" width="70" height="70" as="geometry" />
        </mxCell>
        <mxCell id="qcHzUpOC3n5mlYQ7XM8k-108" value="" style="shape=image;html=1;verticalAlign=top;verticalLabelPosition=bottom;labelBackgroundColor=#ffffff;imageAspect=0;aspect=fixed;image=https://cdn3.iconfinder.com/data/icons/peelicons-vol-1/50/Facebook-128.png;fontSize=42;fontColor=#000000;" vertex="1" parent="uhxujcsQMTb9jiqaK-6d-1">
          <mxGeometry x="2170" y="1090" width="80" height="80" as="geometry" />
        </mxCell>
        <mxCell id="qcHzUpOC3n5mlYQ7XM8k-109" value="" style="shape=image;html=1;verticalAlign=top;verticalLabelPosition=bottom;labelBackgroundColor=#ffffff;imageAspect=0;aspect=fixed;image=https://cdn4.iconfinder.com/data/icons/social-media-and-logos-12/32/Logo_Instagram-128.png;fontSize=42;fontColor=#000000;" vertex="1" parent="uhxujcsQMTb9jiqaK-6d-1">
          <mxGeometry x="2280" y="1086" width="88" height="88" as="geometry" />
        </mxCell>
        <mxCell id="qcHzUpOC3n5mlYQ7XM8k-110" value="" style="shape=image;html=1;verticalAlign=top;verticalLabelPosition=bottom;labelBackgroundColor=#ffffff;imageAspect=0;aspect=fixed;image=https://cdn2.iconfinder.com/data/icons/social-media-2198/64/twitter_social_media_network-128.png;fontSize=42;fontColor=#000000;" vertex="1" parent="uhxujcsQMTb9jiqaK-6d-1">
          <mxGeometry x="2380" y="1076" width="108" height="108" as="geometry" />
        </mxCell>
        <mxCell id="qcHzUpOC3n5mlYQ7XM8k-111" value="Av. do Futuro, 2050&lt;br style=&quot;font-size: 28px;&quot;&gt;" style="text;html=1;strokeColor=none;fillColor=none;align=center;verticalAlign=middle;whiteSpace=wrap;rounded=0;labelBackgroundColor=none;fontSize=28;fontColor=#000000;" vertex="1" parent="uhxujcsQMTb9jiqaK-6d-1">
          <mxGeometry x="3420" y="1120" width="360" height="20" as="geometry" />
        </mxCell>
        <mxCell id="qcHzUpOC3n5mlYQ7XM8k-149" style="edgeStyle=orthogonalEdgeStyle;rounded=0;orthogonalLoop=1;jettySize=auto;html=1;exitX=0.5;exitY=1;exitDx=0;exitDy=0;fontSize=34;fontColor=#000000;" edge="1" parent="uhxujcsQMTb9jiqaK-6d-1" source="qcHzUpOC3n5mlYQ7XM8k-126">
          <mxGeometry relative="1" as="geometry">
            <mxPoint x="3080" y="1300" as="targetPoint" />
          </mxGeometry>
        </mxCell>
        <mxCell id="qcHzUpOC3n5mlYQ7XM8k-126" value="" style="rounded=0;whiteSpace=wrap;html=1;labelBackgroundColor=none;fontSize=32;fontColor=#000000;align=left;" vertex="1" parent="uhxujcsQMTb9jiqaK-6d-1">
          <mxGeometry x="2680" y="260" width="600" height="620" as="geometry" />
        </mxCell>
        <mxCell id="qcHzUpOC3n5mlYQ7XM8k-127" value="Login" style="text;strokeColor=none;fillColor=none;html=1;fontSize=32;fontStyle=1;verticalAlign=middle;align=center;labelBackgroundColor=none;fontColor=#000000;" vertex="1" parent="uhxujcsQMTb9jiqaK-6d-1">
          <mxGeometry x="2784" y="260" width="373" height="70" as="geometry" />
        </mxCell>
        <mxCell id="qcHzUpOC3n5mlYQ7XM8k-130" value="&lt;span style=&quot;font-size: 20px&quot;&gt;ENTRAR&lt;/span&gt;" style="labelPosition=center;verticalLabelPosition=middle;align=center;html=1;shape=mxgraph.basic.shaded_button;dx=10;fillColor=#E6E6E6;strokeColor=none;labelBackgroundColor=none;fontSize=32;fontColor=#000000;" vertex="1" parent="uhxujcsQMTb9jiqaK-6d-1">
          <mxGeometry x="2920" y="730" width="120" height="70" as="geometry" />
        </mxCell>
        <mxCell id="qcHzUpOC3n5mlYQ7XM8k-132" value="Senha: ********" style="strokeWidth=1;shadow=0;dashed=0;align=center;html=1;shape=mxgraph.mockup.forms.pwField;strokeColor=#999999;mainText=;align=left;fontColor=#666666;fontSize=34;spacingLeft=3;labelBackgroundColor=none;" vertex="1" parent="uhxujcsQMTb9jiqaK-6d-1">
          <mxGeometry x="2820" y="610" width="346" height="60" as="geometry" />
        </mxCell>
        <mxCell id="qcHzUpOC3n5mlYQ7XM8k-133" value="Nome:" style="strokeWidth=1;shadow=0;dashed=0;align=center;html=1;shape=mxgraph.mockup.forms.pwField;strokeColor=#999999;mainText=;align=left;fontColor=#666666;fontSize=34;spacingLeft=3;labelBackgroundColor=none;" vertex="1" parent="uhxujcsQMTb9jiqaK-6d-1">
          <mxGeometry x="2822.5" y="530" width="346" height="60" as="geometry" />
        </mxCell>
        <mxCell id="qcHzUpOC3n5mlYQ7XM8k-134" value="" style="shape=actor;whiteSpace=wrap;html=1;labelBackgroundColor=none;fontSize=34;fontColor=#000000;align=left;" vertex="1" parent="uhxujcsQMTb9jiqaK-6d-1">
          <mxGeometry x="2926" y="360" width="89" height="110" as="geometry" />
        </mxCell>
        <mxCell id="qcHzUpOC3n5mlYQ7XM8k-135" value="" style="rounded=0;whiteSpace=wrap;html=1;labelBackgroundColor=none;fontSize=28;fontColor=#000000;" vertex="1" parent="uhxujcsQMTb9jiqaK-6d-1">
          <mxGeometry x="2050" y="1325" width="1790" height="1200" as="geometry" />
        </mxCell>
        <mxCell id="qcHzUpOC3n5mlYQ7XM8k-136" value="LABE X&lt;br&gt;Painel Administrativo" style="rounded=0;whiteSpace=wrap;html=1;fontStyle=1;labelBackgroundColor=none;fontSize=50;" vertex="1" parent="uhxujcsQMTb9jiqaK-6d-1">
          <mxGeometry x="2050" y="1325" width="1790" height="170" as="geometry" />
        </mxCell>
        <mxCell id="qcHzUpOC3n5mlYQ7XM8k-142" value="Av. do Futuro, 2050&lt;br style=&quot;font-size: 28px;&quot;&gt;" style="text;html=1;strokeColor=none;fillColor=none;align=center;verticalAlign=middle;whiteSpace=wrap;rounded=0;labelBackgroundColor=none;fontSize=28;fontColor=#000000;" vertex="1" parent="uhxujcsQMTb9jiqaK-6d-1">
          <mxGeometry x="3420" y="2445" width="360" height="20" as="geometry" />
        </mxCell>
        <mxCell id="qcHzUpOC3n5mlYQ7XM8k-151" value="LISTA DE VIAGENS" style="text;strokeColor=none;fillColor=none;html=1;fontSize=31;fontStyle=1;verticalAlign=middle;align=center;labelBackgroundColor=none;fontColor=#000000;" vertex="1" parent="uhxujcsQMTb9jiqaK-6d-1">
          <mxGeometry x="2240" y="1520" width="350" height="40" as="geometry" />
        </mxCell>
        <mxCell id="qcHzUpOC3n5mlYQ7XM8k-153" value="" style="shape=image;html=1;verticalAlign=top;verticalLabelPosition=bottom;labelBackgroundColor=#ffffff;imageAspect=0;aspect=fixed;image=https://cdn2.iconfinder.com/data/icons/navigation-set-arrows-part-two/32/Arrow_Left-128.png;fontSize=28;fontColor=#000000;" vertex="1" parent="uhxujcsQMTb9jiqaK-6d-1">
          <mxGeometry x="2090" y="1346" width="128" height="128" as="geometry" />
        </mxCell>
        <mxCell id="qcHzUpOC3n5mlYQ7XM8k-154" value="LOGOUT" style="rounded=0;whiteSpace=wrap;html=1;labelBackgroundColor=none;fontSize=28;fontColor=#000000;" vertex="1" parent="uhxujcsQMTb9jiqaK-6d-1">
          <mxGeometry x="2300" y="1411.25" width="140" height="48.75" as="geometry" />
        </mxCell>
        <mxCell id="qcHzUpOC3n5mlYQ7XM8k-156" value="" style="verticalLabelPosition=bottom;shadow=0;dashed=0;align=center;html=1;verticalAlign=top;strokeWidth=1;shape=mxgraph.mockup.forms.splitter;strokeColor=#999999;direction=north;labelBackgroundColor=none;fontSize=30;fontColor=#000000;" vertex="1" parent="uhxujcsQMTb9jiqaK-6d-1">
          <mxGeometry x="2754" y="1590" width="136" height="750" as="geometry" />
        </mxCell>
        <mxCell id="qcHzUpOC3n5mlYQ7XM8k-302" style="edgeStyle=orthogonalEdgeStyle;rounded=0;orthogonalLoop=1;jettySize=auto;html=1;exitX=1;exitY=0.5;exitDx=0;exitDy=0;fontSize=30;fontColor=#000000;" edge="1" parent="uhxujcsQMTb9jiqaK-6d-1" source="qcHzUpOC3n5mlYQ7XM8k-157" target="qcHzUpOC3n5mlYQ7XM8k-183">
          <mxGeometry relative="1" as="geometry" />
        </mxCell>
        <mxCell id="qcHzUpOC3n5mlYQ7XM8k-157" value="&lt;p style=&quot;color: rgb(57 , 65 , 69) ; font-style: normal ; font-weight: 400 ; letter-spacing: normal ; text-indent: 0px ; text-transform: none ; word-spacing: 0px ; font-size: 40px&quot;&gt;&lt;font style=&quot;font-size: 40px&quot;&gt;&lt;b style=&quot;color: slategray&quot;&gt;Nome:&lt;/b&gt;&amp;nbsp;Plutão é planeta sim!&lt;/font&gt;&lt;/p&gt;&lt;p style=&quot;color: rgb(57 , 65 , 69) ; font-size: 40px ; font-style: normal ; font-weight: 400 ; letter-spacing: normal ; text-indent: 0px ; text-transform: none ; word-spacing: 0px&quot;&gt;&lt;br&gt;&lt;/p&gt;" style="rounded=1;whiteSpace=wrap;html=1;labelBackgroundColor=none;fontSize=20;fontColor=#000000;align=left;spacingLeft=5;spacing=1;spacingTop=77;" vertex="1" parent="uhxujcsQMTb9jiqaK-6d-1">
          <mxGeometry x="2080" y="1575" width="720" height="110" as="geometry" />
        </mxCell>
        <mxCell id="qcHzUpOC3n5mlYQ7XM8k-159" value="" style="shape=image;html=1;verticalAlign=top;verticalLabelPosition=bottom;labelBackgroundColor=#ffffff;imageAspect=0;aspect=fixed;image=https://cdn3.iconfinder.com/data/icons/google-material-design-icons/48/ic_delete_48px-128.png;fontSize=31;fontColor=#000000;align=left;" vertex="1" parent="uhxujcsQMTb9jiqaK-6d-1">
          <mxGeometry x="2706" y="1591" width="78" height="78" as="geometry" />
        </mxCell>
        <mxCell id="qcHzUpOC3n5mlYQ7XM8k-160" value="&lt;p style=&quot;font-style: normal ; letter-spacing: normal ; text-indent: 0px ; text-transform: none ; word-spacing: 0px ; font-size: 40px ; font-weight: 400 ; color: rgb(57 , 65 , 69)&quot;&gt;&lt;font style=&quot;font-size: 40px&quot;&gt;&lt;b style=&quot;color: slategray&quot;&gt;Nome:&lt;/b&gt;&amp;nbsp;Festa Marciana!&lt;/font&gt;&lt;/p&gt;" style="rounded=1;whiteSpace=wrap;html=1;labelBackgroundColor=none;fontSize=20;fontColor=#000000;align=left;spacingLeft=5;spacing=1;spacingTop=16;" vertex="1" parent="uhxujcsQMTb9jiqaK-6d-1">
          <mxGeometry x="2080" y="1705" width="720" height="110" as="geometry" />
        </mxCell>
        <mxCell id="qcHzUpOC3n5mlYQ7XM8k-161" value="" style="shape=image;html=1;verticalAlign=top;verticalLabelPosition=bottom;labelBackgroundColor=#ffffff;imageAspect=0;aspect=fixed;image=https://cdn3.iconfinder.com/data/icons/google-material-design-icons/48/ic_delete_48px-128.png;fontSize=31;fontColor=#000000;align=left;" vertex="1" parent="uhxujcsQMTb9jiqaK-6d-1">
          <mxGeometry x="2706" y="1721" width="78" height="78" as="geometry" />
        </mxCell>
        <mxCell id="qcHzUpOC3n5mlYQ7XM8k-162" value="&lt;p style=&quot;color: rgb(57 , 65 , 69) ; font-style: normal ; font-weight: 400 ; letter-spacing: normal ; text-indent: 0px ; text-transform: none ; word-spacing: 0px ; font-size: 40px&quot;&gt;&lt;font style=&quot;font-size: 40px&quot;&gt;&lt;b style=&quot;color: slategray&quot;&gt;Nome:&lt;/b&gt;&amp;nbsp;Dance Saturno!&lt;/font&gt;&lt;/p&gt;&lt;p style=&quot;color: rgb(57 , 65 , 69) ; font-size: 40px ; font-style: normal ; font-weight: 400 ; letter-spacing: normal ; text-indent: 0px ; text-transform: none ; word-spacing: 0px&quot;&gt;&lt;br&gt;&lt;/p&gt;" style="rounded=1;whiteSpace=wrap;html=1;labelBackgroundColor=none;fontSize=20;fontColor=#000000;align=left;spacingLeft=5;spacing=1;spacingTop=77;" vertex="1" parent="uhxujcsQMTb9jiqaK-6d-1">
          <mxGeometry x="2080" y="1835" width="720" height="110" as="geometry" />
        </mxCell>
        <mxCell id="qcHzUpOC3n5mlYQ7XM8k-163" value="" style="shape=image;html=1;verticalAlign=top;verticalLabelPosition=bottom;labelBackgroundColor=#ffffff;imageAspect=0;aspect=fixed;image=https://cdn3.iconfinder.com/data/icons/google-material-design-icons/48/ic_delete_48px-128.png;fontSize=31;fontColor=#000000;align=left;" vertex="1" parent="uhxujcsQMTb9jiqaK-6d-1">
          <mxGeometry x="2706" y="1851" width="78" height="78" as="geometry" />
        </mxCell>
        <mxCell id="qcHzUpOC3n5mlYQ7XM8k-164" value="&lt;p style=&quot;color: rgb(57 , 65 , 69) ; font-style: normal ; font-weight: 400 ; letter-spacing: normal ; text-indent: 0px ; text-transform: none ; word-spacing: 0px ; font-size: 40px&quot;&gt;&lt;font style=&quot;font-size: 40px&quot;&gt;&lt;b style=&quot;color: slategray&quot;&gt;Nome:&lt;/b&gt;&amp;nbsp;Vênus delas!&lt;/font&gt;&lt;/p&gt;&lt;p style=&quot;color: rgb(57 , 65 , 69) ; font-size: 40px ; font-style: normal ; font-weight: 400 ; letter-spacing: normal ; text-indent: 0px ; text-transform: none ; word-spacing: 0px&quot;&gt;&lt;br&gt;&lt;/p&gt;" style="rounded=1;whiteSpace=wrap;html=1;labelBackgroundColor=none;fontSize=20;fontColor=#000000;align=left;spacingLeft=5;spacing=1;spacingTop=77;" vertex="1" parent="uhxujcsQMTb9jiqaK-6d-1">
          <mxGeometry x="2080" y="1965" width="720" height="110" as="geometry" />
        </mxCell>
        <mxCell id="qcHzUpOC3n5mlYQ7XM8k-165" value="" style="shape=image;html=1;verticalAlign=top;verticalLabelPosition=bottom;labelBackgroundColor=#ffffff;imageAspect=0;aspect=fixed;image=https://cdn3.iconfinder.com/data/icons/google-material-design-icons/48/ic_delete_48px-128.png;fontSize=31;fontColor=#000000;align=left;" vertex="1" parent="uhxujcsQMTb9jiqaK-6d-1">
          <mxGeometry x="2706" y="1981" width="78" height="78" as="geometry" />
        </mxCell>
        <mxCell id="qcHzUpOC3n5mlYQ7XM8k-166" value="&lt;p style=&quot;color: rgb(57 , 65 , 69) ; font-style: normal ; font-weight: 400 ; letter-spacing: normal ; text-indent: 0px ; text-transform: none ; word-spacing: 0px ; font-size: 40px&quot;&gt;&lt;font style=&quot;font-size: 40px&quot;&gt;&lt;b style=&quot;color: slategray&quot;&gt;Nome:&lt;/b&gt;&amp;nbsp;Marte vive!&lt;/font&gt;&lt;/p&gt;&lt;p style=&quot;color: rgb(57 , 65 , 69) ; font-size: 40px ; font-style: normal ; font-weight: 400 ; letter-spacing: normal ; text-indent: 0px ; text-transform: none ; word-spacing: 0px&quot;&gt;&lt;br&gt;&lt;/p&gt;" style="rounded=1;whiteSpace=wrap;html=1;labelBackgroundColor=none;fontSize=20;fontColor=#000000;align=left;spacingLeft=5;spacing=1;spacingTop=77;" vertex="1" parent="uhxujcsQMTb9jiqaK-6d-1">
          <mxGeometry x="2080" y="2095" width="720" height="110" as="geometry" />
        </mxCell>
        <mxCell id="qcHzUpOC3n5mlYQ7XM8k-169" value="" style="shape=image;html=1;verticalAlign=top;verticalLabelPosition=bottom;labelBackgroundColor=#ffffff;imageAspect=0;aspect=fixed;image=https://cdn3.iconfinder.com/data/icons/google-material-design-icons/48/ic_delete_48px-128.png;fontSize=31;fontColor=#000000;align=left;" vertex="1" parent="uhxujcsQMTb9jiqaK-6d-1">
          <mxGeometry x="2710" y="2111" width="78" height="78" as="geometry" />
        </mxCell>
        <mxCell id="qcHzUpOC3n5mlYQ7XM8k-170" value="&lt;p style=&quot;color: rgb(57 , 65 , 69) ; font-style: normal ; font-weight: 400 ; letter-spacing: normal ; text-indent: 0px ; text-transform: none ; word-spacing: 0px ; font-size: 40px&quot;&gt;&lt;font style=&quot;font-size: 40px&quot;&gt;&lt;b style=&quot;color: slategray&quot;&gt;Nome:&lt;/b&gt;&amp;nbsp;Aquecimento em Mercúrio&lt;/font&gt;&lt;/p&gt;" style="rounded=1;whiteSpace=wrap;html=1;labelBackgroundColor=none;fontSize=20;fontColor=#000000;align=left;spacingLeft=5;spacing=1;spacingTop=16;" vertex="1" parent="uhxujcsQMTb9jiqaK-6d-1">
          <mxGeometry x="2080" y="2225" width="720" height="110" as="geometry" />
        </mxCell>
        <mxCell id="qcHzUpOC3n5mlYQ7XM8k-171" value="" style="shape=image;html=1;verticalAlign=top;verticalLabelPosition=bottom;labelBackgroundColor=#ffffff;imageAspect=0;aspect=fixed;image=https://cdn3.iconfinder.com/data/icons/google-material-design-icons/48/ic_delete_48px-128.png;fontSize=31;fontColor=#000000;align=left;" vertex="1" parent="uhxujcsQMTb9jiqaK-6d-1">
          <mxGeometry x="2710" y="2241" width="78" height="78" as="geometry" />
        </mxCell>
        <mxCell id="qcHzUpOC3n5mlYQ7XM8k-176" value="&lt;p style=&quot;color: rgb(57 , 65 , 69) ; font-style: normal ; font-weight: 400 ; letter-spacing: normal ; text-indent: 0px ; text-transform: none ; word-spacing: 0px ; font-size: 40px&quot;&gt;&lt;font style=&quot;font-size: 40px&quot;&gt;&lt;b style=&quot;color: slategray&quot;&gt;Nome:&lt;/b&gt;&amp;nbsp;Plutão é planeta sim!&lt;/font&gt;&lt;/p&gt;&lt;p style=&quot;color: rgb(57 , 65 , 69) ; font-size: 40px ; font-style: normal ; font-weight: 400 ; letter-spacing: normal ; text-indent: 0px ; text-transform: none ; word-spacing: 0px&quot;&gt;&lt;br&gt;&lt;/p&gt;" style="rounded=1;whiteSpace=wrap;html=1;labelBackgroundColor=none;fontSize=20;fontColor=#000000;align=left;spacingLeft=5;spacing=1;spacingTop=77;" vertex="1" parent="uhxujcsQMTb9jiqaK-6d-1">
          <mxGeometry x="2080" y="2355" width="720" height="110" as="geometry" />
        </mxCell>
        <mxCell id="qcHzUpOC3n5mlYQ7XM8k-177" value="" style="shape=image;html=1;verticalAlign=top;verticalLabelPosition=bottom;labelBackgroundColor=#ffffff;imageAspect=0;aspect=fixed;image=https://cdn3.iconfinder.com/data/icons/google-material-design-icons/48/ic_delete_48px-128.png;fontSize=31;fontColor=#000000;align=left;" vertex="1" parent="uhxujcsQMTb9jiqaK-6d-1">
          <mxGeometry x="2620" y="2371" width="78" height="78" as="geometry" />
        </mxCell>
        <mxCell id="qcHzUpOC3n5mlYQ7XM8k-137" value="LabeX" style="shape=ext;double=1;rounded=0;whiteSpace=wrap;html=1;labelBackgroundColor=none;fontSize=42;fontColor=#000000;" vertex="1" parent="uhxujcsQMTb9jiqaK-6d-1">
          <mxGeometry x="2050" y="2375" width="1790" height="150" as="geometry" />
        </mxCell>
        <mxCell id="qcHzUpOC3n5mlYQ7XM8k-138" value="" style="shape=image;html=1;verticalAlign=top;verticalLabelPosition=bottom;labelBackgroundColor=#ffffff;imageAspect=0;aspect=fixed;image=https://cdn4.iconfinder.com/data/icons/social-media-and-logos-12/32/Logo_Whatsapp_telephone_handset-128.png;fontSize=42;fontColor=#000000;" vertex="1" parent="uhxujcsQMTb9jiqaK-6d-1">
          <mxGeometry x="2070" y="2420" width="70" height="70" as="geometry" />
        </mxCell>
        <mxCell id="qcHzUpOC3n5mlYQ7XM8k-139" value="" style="shape=image;html=1;verticalAlign=top;verticalLabelPosition=bottom;labelBackgroundColor=#ffffff;imageAspect=0;aspect=fixed;image=https://cdn3.iconfinder.com/data/icons/peelicons-vol-1/50/Facebook-128.png;fontSize=42;fontColor=#000000;" vertex="1" parent="uhxujcsQMTb9jiqaK-6d-1">
          <mxGeometry x="2170" y="2415" width="80" height="80" as="geometry" />
        </mxCell>
        <mxCell id="qcHzUpOC3n5mlYQ7XM8k-140" value="" style="shape=image;html=1;verticalAlign=top;verticalLabelPosition=bottom;labelBackgroundColor=#ffffff;imageAspect=0;aspect=fixed;image=https://cdn4.iconfinder.com/data/icons/social-media-and-logos-12/32/Logo_Instagram-128.png;fontSize=42;fontColor=#000000;" vertex="1" parent="uhxujcsQMTb9jiqaK-6d-1">
          <mxGeometry x="2280" y="2411" width="88" height="88" as="geometry" />
        </mxCell>
        <mxCell id="qcHzUpOC3n5mlYQ7XM8k-141" value="" style="shape=image;html=1;verticalAlign=top;verticalLabelPosition=bottom;labelBackgroundColor=#ffffff;imageAspect=0;aspect=fixed;image=https://cdn2.iconfinder.com/data/icons/social-media-2198/64/twitter_social_media_network-128.png;fontSize=42;fontColor=#000000;" vertex="1" parent="uhxujcsQMTb9jiqaK-6d-1">
          <mxGeometry x="2380" y="2401" width="108" height="108" as="geometry" />
        </mxCell>
        <mxCell id="qcHzUpOC3n5mlYQ7XM8k-183" value="" style="rounded=0;whiteSpace=wrap;html=1;labelBackgroundColor=none;fontSize=28;fontColor=#000000;" vertex="1" parent="uhxujcsQMTb9jiqaK-6d-1">
          <mxGeometry x="2050" y="2680" width="1790" height="1200" as="geometry" />
        </mxCell>
        <mxCell id="qcHzUpOC3n5mlYQ7XM8k-184" value="LABE X&lt;br&gt;Painel Administrativo" style="rounded=0;whiteSpace=wrap;html=1;fontStyle=1;labelBackgroundColor=none;fontSize=50;" vertex="1" parent="uhxujcsQMTb9jiqaK-6d-1">
          <mxGeometry x="2050" y="2680" width="1790" height="170" as="geometry" />
        </mxCell>
        <mxCell id="qcHzUpOC3n5mlYQ7XM8k-185" value="Av. do Futuro, 2050&lt;br style=&quot;font-size: 28px;&quot;&gt;" style="text;html=1;strokeColor=none;fillColor=none;align=center;verticalAlign=middle;whiteSpace=wrap;rounded=0;labelBackgroundColor=none;fontSize=28;fontColor=#000000;" vertex="1" parent="uhxujcsQMTb9jiqaK-6d-1">
          <mxGeometry x="3420" y="3800" width="360" height="20" as="geometry" />
        </mxCell>
        <mxCell id="qcHzUpOC3n5mlYQ7XM8k-186" value="PLUTÃO É PLANETA SIM!" style="text;strokeColor=none;fillColor=none;html=1;fontSize=31;fontStyle=1;verticalAlign=middle;align=center;labelBackgroundColor=none;fontColor=#000000;" vertex="1" parent="uhxujcsQMTb9jiqaK-6d-1">
          <mxGeometry x="2195" y="2890" width="350" height="40" as="geometry" />
        </mxCell>
        <mxCell id="qcHzUpOC3n5mlYQ7XM8k-188" value="" style="shape=image;html=1;verticalAlign=top;verticalLabelPosition=bottom;labelBackgroundColor=#ffffff;imageAspect=0;aspect=fixed;image=https://cdn2.iconfinder.com/data/icons/navigation-set-arrows-part-two/32/Arrow_Left-128.png;fontSize=28;fontColor=#000000;" vertex="1" parent="uhxujcsQMTb9jiqaK-6d-1">
          <mxGeometry x="2090" y="2701" width="128" height="128" as="geometry" />
        </mxCell>
        <mxCell id="qcHzUpOC3n5mlYQ7XM8k-189" value="LOGOUT" style="rounded=0;whiteSpace=wrap;html=1;labelBackgroundColor=none;fontSize=28;fontColor=#000000;" vertex="1" parent="uhxujcsQMTb9jiqaK-6d-1">
          <mxGeometry x="3580" y="2740" width="140" height="48.75" as="geometry" />
        </mxCell>
        <mxCell id="qcHzUpOC3n5mlYQ7XM8k-190" value="CANDIDATOS PENDENTES:" style="text;strokeColor=none;fillColor=none;html=1;fontSize=31;fontStyle=1;verticalAlign=middle;align=center;labelBackgroundColor=none;fontColor=#000000;" vertex="1" parent="uhxujcsQMTb9jiqaK-6d-1">
          <mxGeometry x="3180" y="2875" width="350" height="40" as="geometry" />
        </mxCell>
        <mxCell id="qcHzUpOC3n5mlYQ7XM8k-191" value="" style="verticalLabelPosition=bottom;shadow=0;dashed=0;align=center;html=1;verticalAlign=top;strokeWidth=1;shape=mxgraph.mockup.forms.splitter;strokeColor=#999999;direction=north;labelBackgroundColor=none;fontSize=30;fontColor=#000000;" vertex="1" parent="uhxujcsQMTb9jiqaK-6d-1">
          <mxGeometry x="2562" y="3345" width="136" height="310" as="geometry" />
        </mxCell>
        <mxCell id="qcHzUpOC3n5mlYQ7XM8k-214" value="" style="rounded=0;whiteSpace=wrap;html=1;labelBackgroundColor=none;fontSize=32;fontColor=#000000;align=left;" vertex="1" parent="uhxujcsQMTb9jiqaK-6d-1">
          <mxGeometry x="3100" y="1569" width="600" height="620" as="geometry" />
        </mxCell>
        <mxCell id="qcHzUpOC3n5mlYQ7XM8k-216" value="Escolha um Planesta" style="strokeWidth=1;shadow=0;dashed=0;align=center;html=1;shape=mxgraph.mockup.forms.comboBox;strokeColor=#999999;fillColor=#ddeeff;align=left;fillColor2=#aaddff;mainText=;fontColor=#666666;fontSize=17;spacingLeft=3;labelBackgroundColor=none;" vertex="1" parent="uhxujcsQMTb9jiqaK-6d-1">
          <mxGeometry x="3120" y="1735" width="560" height="50" as="geometry" />
        </mxCell>
        <mxCell id="qcHzUpOC3n5mlYQ7XM8k-217" value="Nome:" style="html=1;shadow=0;dashed=0;shape=mxgraph.bootstrap.rrect;rSize=5;strokeColor=#CED4DA;strokeWidth=1;fillColor=#E9ECEF;fontColor=#505050;whiteSpace=wrap;align=left;verticalAlign=middle;spacingLeft=10;fontSize=14;labelBackgroundColor=none;" vertex="1" parent="uhxujcsQMTb9jiqaK-6d-1">
          <mxGeometry x="3120" y="1669" width="560" height="50" as="geometry" />
        </mxCell>
        <mxCell id="qcHzUpOC3n5mlYQ7XM8k-220" value="&lt;font style=&quot;font-size: 21px&quot;&gt;dd / mm / &lt;font style=&quot;font-size: 21px&quot;&gt;aaaa&lt;/font&gt;&lt;/font&gt;" style="html=1;shadow=0;dashed=0;shape=mxgraph.bootstrap.rrect;rSize=5;strokeColor=#CED4DA;strokeWidth=1;fillColor=#E9ECEF;fontColor=#505050;whiteSpace=wrap;align=left;verticalAlign=middle;spacingLeft=10;fontSize=14;labelBackgroundColor=none;" vertex="1" parent="uhxujcsQMTb9jiqaK-6d-1">
          <mxGeometry x="3120" y="1800" width="560" height="50" as="geometry" />
        </mxCell>
        <mxCell id="qcHzUpOC3n5mlYQ7XM8k-222" value="&lt;font style=&quot;font-size: 20px&quot;&gt;CRIAR&lt;/font&gt;" style="labelPosition=center;verticalLabelPosition=middle;align=center;html=1;shape=mxgraph.basic.shaded_button;dx=10;fillColor=#E6E6E6;strokeColor=none;labelBackgroundColor=none;fontSize=32;fontColor=#000000;" vertex="1" parent="uhxujcsQMTb9jiqaK-6d-1">
          <mxGeometry x="3360" y="2089" width="100" height="60" as="geometry" />
        </mxCell>
        <mxCell id="qcHzUpOC3n5mlYQ7XM8k-155" value="CRIAR VIAGEM" style="text;strokeColor=none;fillColor=none;html=1;fontSize=31;fontStyle=1;verticalAlign=middle;align=center;labelBackgroundColor=none;fontColor=#000000;" vertex="1" parent="uhxujcsQMTb9jiqaK-6d-1">
          <mxGeometry x="3180" y="1609" width="440" height="40" as="geometry" />
        </mxCell>
        <mxCell id="qcHzUpOC3n5mlYQ7XM8k-223" value="" style="strokeWidth=1;shadow=0;dashed=0;align=center;html=1;shape=mxgraph.mockup.forms.rrect;rSize=5;strokeColor=#999999;fillColor=#ffffff;labelBackgroundColor=none;fontSize=26;fontColor=#000000;" vertex="1" parent="uhxujcsQMTb9jiqaK-6d-1">
          <mxGeometry x="3610" y="1799" width="60" height="51" as="geometry" />
        </mxCell>
        <mxCell id="qcHzUpOC3n5mlYQ7XM8k-224" value="October 2014" style="strokeWidth=1;shadow=0;dashed=0;align=center;html=1;shape=mxgraph.mockup.forms.anchor;fontColor=#999999;" vertex="1" parent="qcHzUpOC3n5mlYQ7XM8k-223">
          <mxGeometry x="11.25" y="2.331428571428572" width="37.5" height="5.828571428571429" as="geometry" />
        </mxCell>
        <mxCell id="qcHzUpOC3n5mlYQ7XM8k-225" value="&lt;" style="strokeWidth=1;shadow=0;dashed=0;align=center;html=1;shape=mxgraph.mockup.forms.rrect;rSize=4;strokeColor=#999999;fontColor=#008cff;fontSize=19;fontStyle=1;" vertex="1" parent="qcHzUpOC3n5mlYQ7XM8k-223">
          <mxGeometry x="3" y="2.331428571428572" width="9.375" height="5.828571428571429" as="geometry" />
        </mxCell>
        <mxCell id="qcHzUpOC3n5mlYQ7XM8k-226" value="&gt;" style="strokeWidth=1;shadow=0;dashed=0;align=center;html=1;shape=mxgraph.mockup.forms.rrect;rSize=4;strokeColor=#999999;fontColor=#008cff;fontSize=19;fontStyle=1;" vertex="1" parent="qcHzUpOC3n5mlYQ7XM8k-223">
          <mxGeometry x="47.625" y="2.331428571428572" width="9.375" height="5.828571428571429" as="geometry" />
        </mxCell>
        <mxCell id="qcHzUpOC3n5mlYQ7XM8k-227" value="Mo" style="strokeWidth=1;shadow=0;dashed=0;align=center;html=1;shape=mxgraph.mockup.forms.anchor;fontColor=#999999;" vertex="1" parent="qcHzUpOC3n5mlYQ7XM8k-223">
          <mxGeometry x="3.75" y="8.16" width="7.5" height="5.828571428571429" as="geometry" />
        </mxCell>
        <mxCell id="qcHzUpOC3n5mlYQ7XM8k-228" value="Tu" style="strokeWidth=1;shadow=0;dashed=0;align=center;html=1;shape=mxgraph.mockup.forms.anchor;fontColor=#999999;" vertex="1" parent="qcHzUpOC3n5mlYQ7XM8k-223">
          <mxGeometry x="11.25" y="8.16" width="7.5" height="5.828571428571429" as="geometry" />
        </mxCell>
        <mxCell id="qcHzUpOC3n5mlYQ7XM8k-229" value="We" style="strokeWidth=1;shadow=0;dashed=0;align=center;html=1;shape=mxgraph.mockup.forms.anchor;fontColor=#999999;" vertex="1" parent="qcHzUpOC3n5mlYQ7XM8k-223">
          <mxGeometry x="18.75" y="8.16" width="7.5" height="5.828571428571429" as="geometry" />
        </mxCell>
        <mxCell id="qcHzUpOC3n5mlYQ7XM8k-230" value="Th" style="strokeWidth=1;shadow=0;dashed=0;align=center;html=1;shape=mxgraph.mockup.forms.anchor;fontColor=#999999;" vertex="1" parent="qcHzUpOC3n5mlYQ7XM8k-223">
          <mxGeometry x="26.25" y="8.16" width="7.5" height="5.828571428571429" as="geometry" />
        </mxCell>
        <mxCell id="qcHzUpOC3n5mlYQ7XM8k-231" value="Fr" style="strokeWidth=1;shadow=0;dashed=0;align=center;html=1;shape=mxgraph.mockup.forms.anchor;fontColor=#999999;" vertex="1" parent="qcHzUpOC3n5mlYQ7XM8k-223">
          <mxGeometry x="33.75" y="8.16" width="7.5" height="5.828571428571429" as="geometry" />
        </mxCell>
        <mxCell id="qcHzUpOC3n5mlYQ7XM8k-232" value="Sa" style="strokeWidth=1;shadow=0;dashed=0;align=center;html=1;shape=mxgraph.mockup.forms.anchor;fontColor=#999999;" vertex="1" parent="qcHzUpOC3n5mlYQ7XM8k-223">
          <mxGeometry x="41.25" y="8.16" width="7.5" height="5.828571428571429" as="geometry" />
        </mxCell>
        <mxCell id="qcHzUpOC3n5mlYQ7XM8k-233" value="Su" style="strokeWidth=1;shadow=0;dashed=0;align=center;html=1;shape=mxgraph.mockup.forms.anchor;fontColor=#999999;" vertex="1" parent="qcHzUpOC3n5mlYQ7XM8k-223">
          <mxGeometry x="48.75" y="8.16" width="7.5" height="5.828571428571429" as="geometry" />
        </mxCell>
        <mxCell id="qcHzUpOC3n5mlYQ7XM8k-234" value="1" style="strokeWidth=1;shadow=0;dashed=0;align=center;html=1;shape=mxgraph.mockup.forms.rrect;rSize=0;strokeColor=#999999;fontColor=#999999;" vertex="1" parent="qcHzUpOC3n5mlYQ7XM8k-223">
          <mxGeometry x="3.75" y="13.988571428571431" width="7.5" height="5.828571428571429" as="geometry" />
        </mxCell>
        <mxCell id="qcHzUpOC3n5mlYQ7XM8k-235" value="2" style="strokeWidth=1;shadow=0;dashed=0;align=center;html=1;shape=mxgraph.mockup.forms.rrect;rSize=0;strokeColor=#999999;fontColor=#999999;" vertex="1" parent="qcHzUpOC3n5mlYQ7XM8k-223">
          <mxGeometry x="11.25" y="13.988571428571431" width="7.5" height="5.828571428571429" as="geometry" />
        </mxCell>
        <mxCell id="qcHzUpOC3n5mlYQ7XM8k-236" value="3" style="strokeWidth=1;shadow=0;dashed=0;align=center;html=1;shape=mxgraph.mockup.forms.rrect;rSize=0;strokeColor=#999999;fontColor=#999999;" vertex="1" parent="qcHzUpOC3n5mlYQ7XM8k-223">
          <mxGeometry x="18.75" y="13.988571428571431" width="7.5" height="5.828571428571429" as="geometry" />
        </mxCell>
        <mxCell id="qcHzUpOC3n5mlYQ7XM8k-237" value="4" style="strokeWidth=1;shadow=0;dashed=0;align=center;html=1;shape=mxgraph.mockup.forms.rrect;rSize=0;strokeColor=#999999;fontColor=#999999;" vertex="1" parent="qcHzUpOC3n5mlYQ7XM8k-223">
          <mxGeometry x="26.25" y="13.988571428571431" width="7.5" height="5.828571428571429" as="geometry" />
        </mxCell>
        <mxCell id="qcHzUpOC3n5mlYQ7XM8k-238" value="5" style="strokeWidth=1;shadow=0;dashed=0;align=center;html=1;shape=mxgraph.mockup.forms.rrect;rSize=0;strokeColor=#999999;fontColor=#999999;" vertex="1" parent="qcHzUpOC3n5mlYQ7XM8k-223">
          <mxGeometry x="33.75" y="13.988571428571431" width="7.5" height="5.828571428571429" as="geometry" />
        </mxCell>
        <mxCell id="qcHzUpOC3n5mlYQ7XM8k-239" value="6" style="strokeWidth=1;shadow=0;dashed=0;align=center;html=1;shape=mxgraph.mockup.forms.rrect;rSize=0;strokeColor=#999999;fontColor=#999999;" vertex="1" parent="qcHzUpOC3n5mlYQ7XM8k-223">
          <mxGeometry x="41.25" y="13.988571428571431" width="7.5" height="5.828571428571429" as="geometry" />
        </mxCell>
        <mxCell id="qcHzUpOC3n5mlYQ7XM8k-240" value="7" style="strokeWidth=1;shadow=0;dashed=0;align=center;html=1;shape=mxgraph.mockup.forms.rrect;rSize=0;strokeColor=#999999;fontColor=#999999;" vertex="1" parent="qcHzUpOC3n5mlYQ7XM8k-223">
          <mxGeometry x="48.75" y="13.988571428571431" width="7.5" height="5.828571428571429" as="geometry" />
        </mxCell>
        <mxCell id="qcHzUpOC3n5mlYQ7XM8k-241" value="8" style="strokeWidth=1;shadow=0;dashed=0;align=center;html=1;shape=mxgraph.mockup.forms.rrect;rSize=0;strokeColor=#999999;fontColor=#999999;" vertex="1" parent="qcHzUpOC3n5mlYQ7XM8k-223">
          <mxGeometry x="3.75" y="19.81714285714286" width="7.5" height="5.828571428571429" as="geometry" />
        </mxCell>
        <mxCell id="qcHzUpOC3n5mlYQ7XM8k-242" value="9" style="strokeWidth=1;shadow=0;dashed=0;align=center;html=1;shape=mxgraph.mockup.forms.rrect;rSize=0;strokeColor=#999999;fontColor=#999999;" vertex="1" parent="qcHzUpOC3n5mlYQ7XM8k-223">
          <mxGeometry x="11.25" y="19.81714285714286" width="7.5" height="5.828571428571429" as="geometry" />
        </mxCell>
        <mxCell id="qcHzUpOC3n5mlYQ7XM8k-243" value="10" style="strokeWidth=1;shadow=0;dashed=0;align=center;html=1;shape=mxgraph.mockup.forms.rrect;rSize=0;strokeColor=#999999;fontColor=#999999;" vertex="1" parent="qcHzUpOC3n5mlYQ7XM8k-223">
          <mxGeometry x="18.75" y="19.81714285714286" width="7.5" height="5.828571428571429" as="geometry" />
        </mxCell>
        <mxCell id="qcHzUpOC3n5mlYQ7XM8k-244" value="11" style="strokeWidth=1;shadow=0;dashed=0;align=center;html=1;shape=mxgraph.mockup.forms.rrect;rSize=0;strokeColor=#999999;fontColor=#999999;" vertex="1" parent="qcHzUpOC3n5mlYQ7XM8k-223">
          <mxGeometry x="26.25" y="19.81714285714286" width="7.5" height="5.828571428571429" as="geometry" />
        </mxCell>
        <mxCell id="qcHzUpOC3n5mlYQ7XM8k-245" value="12" style="strokeWidth=1;shadow=0;dashed=0;align=center;html=1;shape=mxgraph.mockup.forms.rrect;rSize=0;strokeColor=#999999;fontColor=#999999;" vertex="1" parent="qcHzUpOC3n5mlYQ7XM8k-223">
          <mxGeometry x="33.75" y="19.81714285714286" width="7.5" height="5.828571428571429" as="geometry" />
        </mxCell>
        <mxCell id="qcHzUpOC3n5mlYQ7XM8k-246" value="13" style="strokeWidth=1;shadow=0;dashed=0;align=center;html=1;shape=mxgraph.mockup.forms.rrect;rSize=0;strokeColor=#999999;fontColor=#999999;" vertex="1" parent="qcHzUpOC3n5mlYQ7XM8k-223">
          <mxGeometry x="41.25" y="19.81714285714286" width="7.5" height="5.828571428571429" as="geometry" />
        </mxCell>
        <mxCell id="qcHzUpOC3n5mlYQ7XM8k-247" value="14" style="strokeWidth=1;shadow=0;dashed=0;align=center;html=1;shape=mxgraph.mockup.forms.rrect;rSize=0;strokeColor=#999999;fontColor=#999999;" vertex="1" parent="qcHzUpOC3n5mlYQ7XM8k-223">
          <mxGeometry x="48.75" y="19.81714285714286" width="7.5" height="5.828571428571429" as="geometry" />
        </mxCell>
        <mxCell id="qcHzUpOC3n5mlYQ7XM8k-248" value="15" style="strokeWidth=1;shadow=0;dashed=0;align=center;html=1;shape=mxgraph.mockup.forms.rrect;rSize=0;strokeColor=#999999;fontColor=#999999;" vertex="1" parent="qcHzUpOC3n5mlYQ7XM8k-223">
          <mxGeometry x="3.75" y="25.645714285714288" width="7.5" height="5.828571428571429" as="geometry" />
        </mxCell>
        <mxCell id="qcHzUpOC3n5mlYQ7XM8k-249" value="16" style="strokeWidth=1;shadow=0;dashed=0;align=center;html=1;shape=mxgraph.mockup.forms.rrect;rSize=0;strokeColor=#999999;fontColor=#999999;" vertex="1" parent="qcHzUpOC3n5mlYQ7XM8k-223">
          <mxGeometry x="11.25" y="25.645714285714288" width="7.5" height="5.828571428571429" as="geometry" />
        </mxCell>
        <mxCell id="qcHzUpOC3n5mlYQ7XM8k-250" value="17" style="strokeWidth=1;shadow=0;dashed=0;align=center;html=1;shape=mxgraph.mockup.forms.rrect;rSize=0;strokeColor=#999999;fontColor=#999999;" vertex="1" parent="qcHzUpOC3n5mlYQ7XM8k-223">
          <mxGeometry x="18.75" y="25.645714285714288" width="7.5" height="5.828571428571429" as="geometry" />
        </mxCell>
        <mxCell id="qcHzUpOC3n5mlYQ7XM8k-251" value="18" style="strokeWidth=1;shadow=0;dashed=0;align=center;html=1;shape=mxgraph.mockup.forms.rrect;rSize=0;strokeColor=#999999;fontColor=#999999;" vertex="1" parent="qcHzUpOC3n5mlYQ7XM8k-223">
          <mxGeometry x="26.25" y="25.645714285714288" width="7.5" height="5.828571428571429" as="geometry" />
        </mxCell>
        <mxCell id="qcHzUpOC3n5mlYQ7XM8k-252" value="19" style="strokeWidth=1;shadow=0;dashed=0;align=center;html=1;shape=mxgraph.mockup.forms.rrect;rSize=0;strokeColor=#999999;fontColor=#999999;" vertex="1" parent="qcHzUpOC3n5mlYQ7XM8k-223">
          <mxGeometry x="33.75" y="25.645714285714288" width="7.5" height="5.828571428571429" as="geometry" />
        </mxCell>
        <mxCell id="qcHzUpOC3n5mlYQ7XM8k-253" value="20" style="strokeWidth=1;shadow=0;dashed=0;align=center;html=1;shape=mxgraph.mockup.forms.rrect;rSize=0;strokeColor=#999999;fontColor=#999999;" vertex="1" parent="qcHzUpOC3n5mlYQ7XM8k-223">
          <mxGeometry x="41.25" y="25.645714285714288" width="7.5" height="5.828571428571429" as="geometry" />
        </mxCell>
        <mxCell id="qcHzUpOC3n5mlYQ7XM8k-254" value="21" style="strokeWidth=1;shadow=0;dashed=0;align=center;html=1;shape=mxgraph.mockup.forms.rrect;rSize=0;strokeColor=#999999;fontColor=#999999;" vertex="1" parent="qcHzUpOC3n5mlYQ7XM8k-223">
          <mxGeometry x="48.75" y="25.645714285714288" width="7.5" height="5.828571428571429" as="geometry" />
        </mxCell>
        <mxCell id="qcHzUpOC3n5mlYQ7XM8k-255" value="22" style="strokeWidth=1;shadow=0;dashed=0;align=center;html=1;shape=mxgraph.mockup.forms.rrect;rSize=0;strokeColor=#999999;fontColor=#999999;" vertex="1" parent="qcHzUpOC3n5mlYQ7XM8k-223">
          <mxGeometry x="3.75" y="31.474285714285713" width="7.5" height="5.828571428571429" as="geometry" />
        </mxCell>
        <mxCell id="qcHzUpOC3n5mlYQ7XM8k-256" value="23" style="strokeWidth=1;shadow=0;dashed=0;align=center;html=1;shape=mxgraph.mockup.forms.rrect;rSize=0;strokeColor=#999999;fontColor=#999999;" vertex="1" parent="qcHzUpOC3n5mlYQ7XM8k-223">
          <mxGeometry x="11.25" y="31.474285714285713" width="7.5" height="5.828571428571429" as="geometry" />
        </mxCell>
        <mxCell id="qcHzUpOC3n5mlYQ7XM8k-257" value="25" style="strokeWidth=1;shadow=0;dashed=0;align=center;html=1;shape=mxgraph.mockup.forms.rrect;rSize=0;strokeColor=#999999;fontColor=#999999;" vertex="1" parent="qcHzUpOC3n5mlYQ7XM8k-223">
          <mxGeometry x="26.25" y="31.474285714285713" width="7.5" height="5.828571428571429" as="geometry" />
        </mxCell>
        <mxCell id="qcHzUpOC3n5mlYQ7XM8k-258" value="26" style="strokeWidth=1;shadow=0;dashed=0;align=center;html=1;shape=mxgraph.mockup.forms.rrect;rSize=0;strokeColor=#999999;fontColor=#999999;" vertex="1" parent="qcHzUpOC3n5mlYQ7XM8k-223">
          <mxGeometry x="33.75" y="31.474285714285713" width="7.5" height="5.828571428571429" as="geometry" />
        </mxCell>
        <mxCell id="qcHzUpOC3n5mlYQ7XM8k-259" value="27" style="strokeWidth=1;shadow=0;dashed=0;align=center;html=1;shape=mxgraph.mockup.forms.rrect;rSize=0;strokeColor=#999999;fontColor=#999999;" vertex="1" parent="qcHzUpOC3n5mlYQ7XM8k-223">
          <mxGeometry x="41.25" y="31.474285714285713" width="7.5" height="5.828571428571429" as="geometry" />
        </mxCell>
        <mxCell id="qcHzUpOC3n5mlYQ7XM8k-260" value="28" style="strokeWidth=1;shadow=0;dashed=0;align=center;html=1;shape=mxgraph.mockup.forms.rrect;rSize=0;strokeColor=#999999;fontColor=#999999;" vertex="1" parent="qcHzUpOC3n5mlYQ7XM8k-223">
          <mxGeometry x="48.75" y="31.474285714285713" width="7.5" height="5.828571428571429" as="geometry" />
        </mxCell>
        <mxCell id="qcHzUpOC3n5mlYQ7XM8k-261" value="29" style="strokeWidth=1;shadow=0;dashed=0;align=center;html=1;shape=mxgraph.mockup.forms.rrect;rSize=0;strokeColor=#999999;fontColor=#999999;" vertex="1" parent="qcHzUpOC3n5mlYQ7XM8k-223">
          <mxGeometry x="3.75" y="37.30285714285715" width="7.5" height="5.828571428571429" as="geometry" />
        </mxCell>
        <mxCell id="qcHzUpOC3n5mlYQ7XM8k-262" value="30" style="strokeWidth=1;shadow=0;dashed=0;align=center;html=1;shape=mxgraph.mockup.forms.rrect;rSize=0;strokeColor=#999999;fontColor=#999999;" vertex="1" parent="qcHzUpOC3n5mlYQ7XM8k-223">
          <mxGeometry x="11.25" y="37.30285714285715" width="7.5" height="5.828571428571429" as="geometry" />
        </mxCell>
        <mxCell id="qcHzUpOC3n5mlYQ7XM8k-263" value="31" style="strokeWidth=1;shadow=0;dashed=0;align=center;html=1;shape=mxgraph.mockup.forms.rrect;rSize=0;strokeColor=#999999;fontColor=#999999;" vertex="1" parent="qcHzUpOC3n5mlYQ7XM8k-223">
          <mxGeometry x="18.75" y="37.30285714285715" width="7.5" height="5.828571428571429" as="geometry" />
        </mxCell>
        <mxCell id="qcHzUpOC3n5mlYQ7XM8k-264" value="1" style="strokeWidth=1;shadow=0;dashed=0;align=center;html=1;shape=mxgraph.mockup.forms.rrect;rSize=0;strokeColor=#999999;fontColor=#999999;fillColor=#ddeeff;" vertex="1" parent="qcHzUpOC3n5mlYQ7XM8k-223">
          <mxGeometry x="26.25" y="37.30285714285715" width="7.5" height="5.828571428571429" as="geometry" />
        </mxCell>
        <mxCell id="qcHzUpOC3n5mlYQ7XM8k-265" value="2" style="strokeWidth=1;shadow=0;dashed=0;align=center;html=1;shape=mxgraph.mockup.forms.rrect;rSize=0;strokeColor=#999999;fontColor=#999999;fillColor=#ddeeff;" vertex="1" parent="qcHzUpOC3n5mlYQ7XM8k-223">
          <mxGeometry x="33.75" y="37.30285714285715" width="7.5" height="5.828571428571429" as="geometry" />
        </mxCell>
        <mxCell id="qcHzUpOC3n5mlYQ7XM8k-266" value="3" style="strokeWidth=1;shadow=0;dashed=0;align=center;html=1;shape=mxgraph.mockup.forms.rrect;rSize=0;strokeColor=#999999;fontColor=#999999;fillColor=#ddeeff;" vertex="1" parent="qcHzUpOC3n5mlYQ7XM8k-223">
          <mxGeometry x="41.25" y="37.30285714285715" width="7.5" height="5.828571428571429" as="geometry" />
        </mxCell>
        <mxCell id="qcHzUpOC3n5mlYQ7XM8k-267" value="4" style="strokeWidth=1;shadow=0;dashed=0;align=center;html=1;shape=mxgraph.mockup.forms.rrect;rSize=0;strokeColor=#999999;fontColor=#999999;fillColor=#ddeeff;" vertex="1" parent="qcHzUpOC3n5mlYQ7XM8k-223">
          <mxGeometry x="48.75" y="37.30285714285715" width="7.5" height="5.828571428571429" as="geometry" />
        </mxCell>
        <mxCell id="qcHzUpOC3n5mlYQ7XM8k-268" value="5" style="strokeWidth=1;shadow=0;dashed=0;align=center;html=1;shape=mxgraph.mockup.forms.rrect;rSize=0;strokeColor=#999999;fontColor=#999999;fillColor=#ddeeff;" vertex="1" parent="qcHzUpOC3n5mlYQ7XM8k-223">
          <mxGeometry x="3.75" y="43.13142857142858" width="7.5" height="5.828571428571429" as="geometry" />
        </mxCell>
        <mxCell id="qcHzUpOC3n5mlYQ7XM8k-269" value="6" style="strokeWidth=1;shadow=0;dashed=0;align=center;html=1;shape=mxgraph.mockup.forms.rrect;rSize=0;strokeColor=#999999;fontColor=#999999;fillColor=#ddeeff;" vertex="1" parent="qcHzUpOC3n5mlYQ7XM8k-223">
          <mxGeometry x="11.25" y="43.13142857142858" width="7.5" height="5.828571428571429" as="geometry" />
        </mxCell>
        <mxCell id="qcHzUpOC3n5mlYQ7XM8k-270" value="7" style="strokeWidth=1;shadow=0;dashed=0;align=center;html=1;shape=mxgraph.mockup.forms.rrect;rSize=0;strokeColor=#999999;fontColor=#999999;fillColor=#ddeeff;" vertex="1" parent="qcHzUpOC3n5mlYQ7XM8k-223">
          <mxGeometry x="18.75" y="43.13142857142858" width="7.5" height="5.828571428571429" as="geometry" />
        </mxCell>
        <mxCell id="qcHzUpOC3n5mlYQ7XM8k-271" value="8" style="strokeWidth=1;shadow=0;dashed=0;align=center;html=1;shape=mxgraph.mockup.forms.rrect;rSize=0;strokeColor=#999999;fontColor=#999999;fillColor=#ddeeff;" vertex="1" parent="qcHzUpOC3n5mlYQ7XM8k-223">
          <mxGeometry x="26.25" y="43.13142857142858" width="7.5" height="5.828571428571429" as="geometry" />
        </mxCell>
        <mxCell id="qcHzUpOC3n5mlYQ7XM8k-272" value="9" style="strokeWidth=1;shadow=0;dashed=0;align=center;html=1;shape=mxgraph.mockup.forms.rrect;rSize=0;strokeColor=#999999;fontColor=#999999;fillColor=#ddeeff;" vertex="1" parent="qcHzUpOC3n5mlYQ7XM8k-223">
          <mxGeometry x="33.75" y="43.13142857142858" width="7.5" height="5.828571428571429" as="geometry" />
        </mxCell>
        <mxCell id="qcHzUpOC3n5mlYQ7XM8k-273" value="10" style="strokeWidth=1;shadow=0;dashed=0;align=center;html=1;shape=mxgraph.mockup.forms.rrect;rSize=0;strokeColor=#999999;fontColor=#999999;fillColor=#ddeeff;" vertex="1" parent="qcHzUpOC3n5mlYQ7XM8k-223">
          <mxGeometry x="41.25" y="43.13142857142858" width="7.5" height="5.828571428571429" as="geometry" />
        </mxCell>
        <mxCell id="qcHzUpOC3n5mlYQ7XM8k-274" value="11" style="strokeWidth=1;shadow=0;dashed=0;align=center;html=1;shape=mxgraph.mockup.forms.rrect;rSize=0;strokeColor=#999999;fontColor=#999999;fillColor=#ddeeff;" vertex="1" parent="qcHzUpOC3n5mlYQ7XM8k-223">
          <mxGeometry x="48.75" y="43.13142857142858" width="7.5" height="5.828571428571429" as="geometry" />
        </mxCell>
        <mxCell id="qcHzUpOC3n5mlYQ7XM8k-275" value="24" style="strokeWidth=1;shadow=0;dashed=0;align=center;html=1;shape=mxgraph.mockup.forms.rrect;rSize=0;strokeColor=#ff0000;fontColor=#ffffff;strokeWidth=2;fillColor=#008cff;" vertex="1" parent="qcHzUpOC3n5mlYQ7XM8k-223">
          <mxGeometry x="18.75" y="31.474285714285713" width="7.5" height="5.828571428571429" as="geometry" />
        </mxCell>
        <mxCell id="qcHzUpOC3n5mlYQ7XM8k-279" value="Descrição" style="html=1;shadow=0;dashed=0;shape=mxgraph.bootstrap.rrect;rSize=5;strokeColor=#CED4DA;strokeWidth=1;fillColor=#E9ECEF;fontColor=#505050;whiteSpace=wrap;align=left;verticalAlign=middle;spacingLeft=10;fontSize=14;labelBackgroundColor=none;" vertex="1" parent="uhxujcsQMTb9jiqaK-6d-1">
          <mxGeometry x="3120" y="1865" width="560" height="85" as="geometry" />
        </mxCell>
        <mxCell id="qcHzUpOC3n5mlYQ7XM8k-280" value="Duração:" style="html=1;shadow=0;dashed=0;shape=mxgraph.bootstrap.rrect;rSize=5;strokeColor=#CED4DA;strokeWidth=1;fillColor=#E9ECEF;fontColor=#505050;whiteSpace=wrap;align=left;verticalAlign=middle;spacingLeft=10;fontSize=14;labelBackgroundColor=none;" vertex="1" parent="uhxujcsQMTb9jiqaK-6d-1">
          <mxGeometry x="3120" y="1965" width="230" height="50" as="geometry" />
        </mxCell>
        <mxCell id="qcHzUpOC3n5mlYQ7XM8k-281" value="LOGOUT" style="rounded=0;whiteSpace=wrap;html=1;labelBackgroundColor=none;fontSize=28;fontColor=#000000;" vertex="1" parent="uhxujcsQMTb9jiqaK-6d-1">
          <mxGeometry x="3610" y="1391.88" width="140" height="48.75" as="geometry" />
        </mxCell>
        <mxCell id="qcHzUpOC3n5mlYQ7XM8k-283" value="Logado: Não!" style="text;html=1;strokeColor=none;fillColor=none;align=center;verticalAlign=middle;whiteSpace=wrap;rounded=0;labelBackgroundColor=none;fontSize=26;fontColor=#000000;" vertex="1" parent="uhxujcsQMTb9jiqaK-6d-1">
          <mxGeometry x="1960" y="40" width="40" height="20" as="geometry" />
        </mxCell>
        <mxCell id="qcHzUpOC3n5mlYQ7XM8k-284" value="Logado: Sim!" style="text;html=1;strokeColor=none;fillColor=none;align=center;verticalAlign=middle;whiteSpace=wrap;rounded=0;labelBackgroundColor=none;fontSize=26;fontColor=#000000;" vertex="1" parent="uhxujcsQMTb9jiqaK-6d-1">
          <mxGeometry x="1960" y="50" width="40" height="430" as="geometry" />
        </mxCell>
        <mxCell id="qcHzUpOC3n5mlYQ7XM8k-285" value="" style="edgeStyle=orthogonalEdgeStyle;rounded=0;orthogonalLoop=1;jettySize=auto;html=1;fontSize=26;fontColor=#000000;endArrow=none;" edge="1" parent="uhxujcsQMTb9jiqaK-6d-1" target="qcHzUpOC3n5mlYQ7XM8k-284">
          <mxGeometry relative="1" as="geometry">
            <mxPoint x="2930" y="1290" as="targetPoint" />
            <mxPoint x="1910" y="265" as="sourcePoint" />
            <Array as="points" />
          </mxGeometry>
        </mxCell>
        <mxCell id="qcHzUpOC3n5mlYQ7XM8k-288" value="&lt;meta charset=&quot;utf-8&quot;&gt;&lt;p style=&quot;color: rgb(0, 0, 0); font-family: helvetica; font-size: 27px; font-style: normal; font-weight: 400; letter-spacing: normal; text-align: left; text-indent: 0px; text-transform: none; word-spacing: 0px; background-color: rgb(248, 249, 250);&quot;&gt;&lt;b style=&quot;font-size: 27px&quot;&gt;Nome:&lt;/b&gt;&lt;span style=&quot;font-size: 27px&quot;&gt;&amp;nbsp;&lt;/span&gt;Plutão é planeta sim!&lt;/p&gt;&lt;p style=&quot;color: rgb(0, 0, 0); font-family: helvetica; font-size: 27px; font-style: normal; font-weight: 400; letter-spacing: normal; text-align: left; text-indent: 0px; text-transform: none; word-spacing: 0px; background-color: rgb(248, 249, 250);&quot;&gt;&lt;b style=&quot;font-size: 27px&quot;&gt;Descrição:&lt;/b&gt;&lt;span style=&quot;font-size: 27px&quot;&gt;&amp;nbsp;&lt;/span&gt;Desvende os mistérios de plutão&lt;/p&gt;&lt;p style=&quot;color: rgb(0, 0, 0); font-family: helvetica; font-size: 27px; font-style: normal; font-weight: 400; letter-spacing: normal; text-align: left; text-indent: 0px; text-transform: none; word-spacing: 0px; background-color: rgb(248, 249, 250);&quot;&gt;&lt;b style=&quot;font-size: 27px&quot;&gt;Planeta:&lt;/b&gt;&lt;span style=&quot;font-size: 27px&quot;&gt;&amp;nbsp;&lt;/span&gt;Plutão&lt;/p&gt;&lt;p style=&quot;color: rgb(0, 0, 0); font-family: helvetica; font-size: 27px; font-style: normal; font-weight: 400; letter-spacing: normal; text-align: left; text-indent: 0px; text-transform: none; word-spacing: 0px; background-color: rgb(248, 249, 250);&quot;&gt;&lt;b style=&quot;font-size: 27px&quot;&gt;Duração:&lt;/b&gt;&lt;span style=&quot;font-size: 27px&quot;&gt;&amp;nbsp;&lt;/span&gt;52&lt;/p&gt;&lt;p style=&quot;color: rgb(0, 0, 0); font-family: helvetica; font-size: 27px; font-style: normal; font-weight: 400; letter-spacing: normal; text-align: left; text-indent: 0px; text-transform: none; word-spacing: 0px; background-color: rgb(248, 249, 250);&quot;&gt;&lt;b style=&quot;font-size: 27px&quot;&gt;Data:&lt;/b&gt;&lt;span style=&quot;font-size: 27px&quot;&gt;&amp;nbsp;&lt;/span&gt;2021-04-21&lt;/p&gt;" style="text;whiteSpace=wrap;html=1;fontSize=27;fontColor=#000000;" vertex="1" parent="uhxujcsQMTb9jiqaK-6d-1">
          <mxGeometry x="2090" y="2930" width="550" height="370" as="geometry" />
        </mxCell>
        <mxCell id="qcHzUpOC3n5mlYQ7XM8k-289" value="CANDIDATOS APROVADOS:" style="text;strokeColor=none;fillColor=none;html=1;fontSize=26;fontStyle=1;verticalAlign=middle;align=center;labelBackgroundColor=none;fontColor=#000000;" vertex="1" parent="uhxujcsQMTb9jiqaK-6d-1">
          <mxGeometry x="2218" y="3285" width="392" height="40" as="geometry" />
        </mxCell>
        <mxCell id="qcHzUpOC3n5mlYQ7XM8k-290" value="&lt;ol style=&quot;font-size: 31px;&quot;&gt;&lt;li style=&quot;font-size: 31px;&quot;&gt;Maria Louca&lt;/li&gt;&lt;li style=&quot;font-size: 31px;&quot;&gt;João Marciano&lt;/li&gt;&lt;li style=&quot;font-size: 31px;&quot;&gt;Teobaldo Jedi&lt;/li&gt;&lt;li style=&quot;font-size: 31px;&quot;&gt;Jeann Samurai&lt;/li&gt;&lt;li style=&quot;font-size: 31px;&quot;&gt;Fernanda Monstra&lt;/li&gt;&lt;/ol&gt;" style="text;strokeColor=none;fillColor=none;html=1;whiteSpace=wrap;verticalAlign=middle;overflow=hidden;labelBackgroundColor=none;fontSize=31;fontColor=#000000;align=left;spacingTop=2;spacing=2;" vertex="1" parent="uhxujcsQMTb9jiqaK-6d-1">
          <mxGeometry x="2080" y="3325" width="335" height="240" as="geometry" />
        </mxCell>
        <mxCell id="qcHzUpOC3n5mlYQ7XM8k-292" value="&amp;nbsp;APROVAR" style="rounded=1;whiteSpace=wrap;html=1;labelBackgroundColor=none;fontSize=30;fontColor=#000000;align=center;" vertex="1" parent="uhxujcsQMTb9jiqaK-6d-1">
          <mxGeometry x="2976" y="3275" width="190" height="60" as="geometry" />
        </mxCell>
        <mxCell id="qcHzUpOC3n5mlYQ7XM8k-293" value="REPROVAR" style="rounded=1;whiteSpace=wrap;html=1;labelBackgroundColor=none;fontSize=30;fontColor=#000000;align=center;" vertex="1" parent="uhxujcsQMTb9jiqaK-6d-1">
          <mxGeometry x="3400" y="3275" width="200" height="60" as="geometry" />
        </mxCell>
        <mxCell id="qcHzUpOC3n5mlYQ7XM8k-295" value="&amp;nbsp;APROVAR" style="rounded=1;whiteSpace=wrap;html=1;labelBackgroundColor=none;fontSize=30;fontColor=#000000;align=center;" vertex="1" parent="uhxujcsQMTb9jiqaK-6d-1">
          <mxGeometry x="2976" y="3745" width="190" height="60" as="geometry" />
        </mxCell>
        <mxCell id="qcHzUpOC3n5mlYQ7XM8k-296" value="REPROVAR" style="rounded=1;whiteSpace=wrap;html=1;labelBackgroundColor=none;fontSize=30;fontColor=#000000;align=center;" vertex="1" parent="uhxujcsQMTb9jiqaK-6d-1">
          <mxGeometry x="3400" y="3745" width="200" height="60" as="geometry" />
        </mxCell>
        <mxCell id="qcHzUpOC3n5mlYQ7XM8k-297" value="&lt;p style=&quot;color: rgb(57 , 65 , 69) ; font-size: 30px ; font-style: normal ; font-weight: 400 ; letter-spacing: normal ; text-indent: 0px ; text-transform: none ; word-spacing: 0px&quot;&gt;&lt;b style=&quot;color: slategray ; font-size: 30px&quot;&gt;Nome:&lt;/b&gt;&lt;span style=&quot;font-size: 30px&quot;&gt;&amp;nbsp;&lt;/span&gt;João Golias&lt;/p&gt;&lt;p style=&quot;color: rgb(57 , 65 , 69) ; font-size: 30px ; font-style: normal ; font-weight: 400 ; letter-spacing: normal ; text-indent: 0px ; text-transform: none ; word-spacing: 0px&quot;&gt;&lt;b style=&quot;color: slategray ; font-size: 30px&quot;&gt;Profissão:&lt;/b&gt;&lt;span style=&quot;font-size: 30px&quot;&gt;&amp;nbsp;&lt;/span&gt;Surfista Profissional&lt;/p&gt;&lt;p style=&quot;color: rgb(57 , 65 , 69) ; font-size: 30px ; font-style: normal ; font-weight: 400 ; letter-spacing: normal ; text-indent: 0px ; text-transform: none ; word-spacing: 0px ; line-height: 0%&quot;&gt;&lt;b style=&quot;color: slategray ; font-size: 30px&quot;&gt;Idade:&lt;/b&gt;&lt;span style=&quot;font-size: 30px&quot;&gt;&amp;nbsp;&lt;/span&gt;22&lt;/p&gt;&lt;p style=&quot;color: rgb(57 , 65 , 69) ; font-size: 30px ; font-style: normal ; font-weight: 400 ; letter-spacing: normal ; text-indent: 0px ; text-transform: none ; word-spacing: 0px&quot;&gt;&lt;b style=&quot;color: slategray ; font-size: 30px&quot;&gt;País:&lt;/b&gt;&lt;span style=&quot;font-size: 30px&quot;&gt;&amp;nbsp;&lt;/span&gt;Havaí&lt;/p&gt;&lt;p style=&quot;color: rgb(57 , 65 , 69) ; font-size: 30px ; font-style: normal ; font-weight: 400 ; letter-spacing: normal ; text-indent: 0px ; text-transform: none ; word-spacing: 0px&quot;&gt;&lt;b style=&quot;color: slategray ; line-height: 30%&quot;&gt;Texto de Candidatura:&lt;/b&gt;&lt;span&gt;&amp;nbsp;&lt;/span&gt;&lt;span&gt;Adoro surfar em gigantes gasosos, estava só esperando a oportunidade!&lt;/span&gt;&lt;br&gt;&lt;/p&gt;" style="rounded=1;whiteSpace=wrap;html=1;labelBackgroundColor=none;fontSize=30;fontColor=#000000;align=left;spacingLeft=19;spacingTop=-82;verticalAlign=middle;spacing=8;" vertex="1" parent="uhxujcsQMTb9jiqaK-6d-1">
          <mxGeometry x="2717" y="2920" width="1036" height="430" as="geometry" />
        </mxCell>
        <mxCell id="qcHzUpOC3n5mlYQ7XM8k-298" value="REPROVAR" style="rounded=1;whiteSpace=wrap;html=1;labelBackgroundColor=none;fontSize=30;fontColor=#000000;align=center;" vertex="1" parent="uhxujcsQMTb9jiqaK-6d-1">
          <mxGeometry x="3333" y="3275" width="200" height="60" as="geometry" />
        </mxCell>
        <mxCell id="qcHzUpOC3n5mlYQ7XM8k-303" style="edgeStyle=orthogonalEdgeStyle;rounded=0;orthogonalLoop=1;jettySize=auto;html=1;exitX=0;exitY=0.25;exitDx=0;exitDy=0;entryX=0.5;entryY=0;entryDx=0;entryDy=0;fontSize=30;fontColor=#000000;" edge="1" parent="uhxujcsQMTb9jiqaK-6d-1" source="qcHzUpOC3n5mlYQ7XM8k-299" target="qcHzUpOC3n5mlYQ7XM8k-289">
          <mxGeometry relative="1" as="geometry" />
        </mxCell>
        <mxCell id="qcHzUpOC3n5mlYQ7XM8k-299" value="&amp;nbsp;APROVAR" style="rounded=1;whiteSpace=wrap;html=1;labelBackgroundColor=none;fontSize=30;fontColor=#000000;align=center;" vertex="1" parent="uhxujcsQMTb9jiqaK-6d-1">
          <mxGeometry x="2909" y="3275" width="190" height="60" as="geometry" />
        </mxCell>
        <mxCell id="qcHzUpOC3n5mlYQ7XM8k-300" value="&lt;p style=&quot;color: rgb(57 , 65 , 69) ; font-size: 30px ; font-style: normal ; font-weight: 400 ; letter-spacing: normal ; text-indent: 0px ; text-transform: none ; word-spacing: 0px&quot;&gt;&lt;b style=&quot;color: slategray ; font-size: 30px&quot;&gt;Nome:&lt;/b&gt;&lt;span style=&quot;font-size: 30px&quot;&gt;&amp;nbsp;Fulano de tal&lt;/span&gt;&lt;/p&gt;&lt;p style=&quot;color: rgb(57 , 65 , 69) ; font-size: 30px ; font-style: normal ; font-weight: 400 ; letter-spacing: normal ; text-indent: 0px ; text-transform: none ; word-spacing: 0px&quot;&gt;&lt;b style=&quot;color: slategray ; font-size: 30px&quot;&gt;Profissão:&lt;/b&gt;&lt;span style=&quot;font-size: 30px&quot;&gt;&amp;nbsp;Louco&lt;/span&gt;&amp;nbsp;Profissional&lt;/p&gt;&lt;p style=&quot;color: rgb(57 , 65 , 69) ; font-size: 30px ; font-style: normal ; font-weight: 400 ; letter-spacing: normal ; text-indent: 0px ; text-transform: none ; word-spacing: 0px ; line-height: 0%&quot;&gt;&lt;b style=&quot;color: slategray ; font-size: 30px&quot;&gt;Idade:&lt;/b&gt;&lt;span style=&quot;font-size: 30px&quot;&gt;&amp;nbsp;&lt;/span&gt;26&lt;/p&gt;&lt;p style=&quot;color: rgb(57 , 65 , 69) ; font-size: 30px ; font-style: normal ; font-weight: 400 ; letter-spacing: normal ; text-indent: 0px ; text-transform: none ; word-spacing: 0px&quot;&gt;&lt;b style=&quot;color: slategray ; font-size: 30px&quot;&gt;País:&lt;/b&gt;&lt;span style=&quot;font-size: 30px&quot;&gt;&amp;nbsp;Terra Plana&lt;/span&gt;&lt;b style=&quot;color: slategray ; line-height: 30%&quot;&gt;Texto de Candidatura:&lt;/b&gt;&lt;span&gt;&amp;nbsp;&lt;/span&gt;&lt;span&gt;Adoro coisas abstratas e gatos, quero fujir dessa rotina louca!&lt;/span&gt;&lt;/p&gt;" style="rounded=1;whiteSpace=wrap;html=1;labelBackgroundColor=none;fontSize=30;fontColor=#000000;align=left;spacingLeft=19;spacingTop=-82;verticalAlign=middle;spacing=8;" vertex="1" parent="uhxujcsQMTb9jiqaK-6d-1">
          <mxGeometry x="2717" y="3390" width="1036" height="430" as="geometry" />
        </mxCell>
        <mxCell id="qcHzUpOC3n5mlYQ7XM8k-206" value="LabeX" style="shape=ext;double=1;rounded=0;whiteSpace=wrap;html=1;labelBackgroundColor=none;fontSize=42;fontColor=#000000;" vertex="1" parent="uhxujcsQMTb9jiqaK-6d-1">
          <mxGeometry x="2050" y="3730" width="1790" height="150" as="geometry" />
        </mxCell>
        <mxCell id="qcHzUpOC3n5mlYQ7XM8k-207" value="" style="shape=image;html=1;verticalAlign=top;verticalLabelPosition=bottom;labelBackgroundColor=#ffffff;imageAspect=0;aspect=fixed;image=https://cdn4.iconfinder.com/data/icons/social-media-and-logos-12/32/Logo_Whatsapp_telephone_handset-128.png;fontSize=42;fontColor=#000000;" vertex="1" parent="uhxujcsQMTb9jiqaK-6d-1">
          <mxGeometry x="2070" y="3775" width="70" height="70" as="geometry" />
        </mxCell>
        <mxCell id="qcHzUpOC3n5mlYQ7XM8k-208" value="" style="shape=image;html=1;verticalAlign=top;verticalLabelPosition=bottom;labelBackgroundColor=#ffffff;imageAspect=0;aspect=fixed;image=https://cdn3.iconfinder.com/data/icons/peelicons-vol-1/50/Facebook-128.png;fontSize=42;fontColor=#000000;" vertex="1" parent="uhxujcsQMTb9jiqaK-6d-1">
          <mxGeometry x="2170" y="3770" width="80" height="80" as="geometry" />
        </mxCell>
        <mxCell id="qcHzUpOC3n5mlYQ7XM8k-209" value="" style="shape=image;html=1;verticalAlign=top;verticalLabelPosition=bottom;labelBackgroundColor=#ffffff;imageAspect=0;aspect=fixed;image=https://cdn4.iconfinder.com/data/icons/social-media-and-logos-12/32/Logo_Instagram-128.png;fontSize=42;fontColor=#000000;" vertex="1" parent="uhxujcsQMTb9jiqaK-6d-1">
          <mxGeometry x="2280" y="3766" width="88" height="88" as="geometry" />
        </mxCell>
        <mxCell id="qcHzUpOC3n5mlYQ7XM8k-210" value="" style="shape=image;html=1;verticalAlign=top;verticalLabelPosition=bottom;labelBackgroundColor=#ffffff;imageAspect=0;aspect=fixed;image=https://cdn2.iconfinder.com/data/icons/social-media-2198/64/twitter_social_media_network-128.png;fontSize=42;fontColor=#000000;" vertex="1" parent="uhxujcsQMTb9jiqaK-6d-1">
          <mxGeometry x="2380" y="3756" width="108" height="108" as="geometry" />
        </mxCell>
        <mxCell id="qcHzUpOC3n5mlYQ7XM8k-301" value="" style="verticalLabelPosition=bottom;shadow=0;dashed=0;align=center;html=1;verticalAlign=top;strokeWidth=1;shape=mxgraph.mockup.forms.splitter;strokeColor=#999999;direction=north;labelBackgroundColor=none;fontSize=30;fontColor=#000000;" vertex="1" parent="uhxujcsQMTb9jiqaK-6d-1">
          <mxGeometry x="3740" y="2920" width="136" height="790" as="geometry" />
        </mxCell>
      </root>
    </mxGraphModel>
  </diagram>
</mxfile>
